solid OpenSCAD_Model
  facet normal 0 -0 -1
    outer loop
      vertex 5.491 14.016 0
      vertex 7.657 14.016 0
      vertex 5.21487 13.4003 0
    endloop
  endfacet
  facet normal 0 0 -1
    outer loop
      vertex 3.80899 11.791 0
      vertex 4.37387 12.2878 0
      vertex 4.98799 10.095 0
    endloop
  endfacet
  facet normal 0 0 -1
    outer loop
      vertex 7.657 14.016 0
      vertex 4.8425 12.8242 0
      vertex 5.21487 13.4003 0
    endloop
  endfacet
  facet normal 0 0 -1
    outer loop
      vertex 3.20775 11.3527 0
      vertex 4.98799 10.095 0
      vertex 4.2238 9.45319 0
    endloop
  endfacet
  facet normal 0 0 -1
    outer loop
      vertex 2.629 10.9907 0
      vertex 3.20775 11.3527 0
      vertex 4.2238 9.45319 0
    endloop
  endfacet
  facet normal 0 0 -1
    outer loop
      vertex 2.07274 10.7052 0
      vertex 2.629 10.9907 0
      vertex 3.39424 8.90074 0
    endloop
  endfacet
  facet normal 0 0 -1
    outer loop
      vertex 2.4993 8.43768 0
      vertex 2.07274 10.7052 0
      vertex 3.39424 8.90074 0
    endloop
  endfacet
  facet normal 0 0 -1
    outer loop
      vertex 2.4993 8.43768 0
      vertex 1.53899 10.496 0
      vertex 2.07274 10.7052 0
    endloop
  endfacet
  facet normal -0 0 -1
    outer loop
      vertex 2.4993 8.43768 0
      vertex 1.53899 8.064 0
      vertex 1.53899 10.496 0
    endloop
  endfacet
  facet normal 0 -0 -1
    outer loop
      vertex 7.657 14.016 0
      vertex 7.657 0 0
      vertex 4.98799 10.095 0
    endloop
  endfacet
  facet normal 0 0 -1
    outer loop
      vertex 3.39424 8.90074 0
      vertex 2.629 10.9907 0
      vertex 4.2238 9.45319 0
    endloop
  endfacet
  facet normal 0 0 -1
    outer loop
      vertex 3.20775 11.3527 0
      vertex 3.80899 11.791 0
      vertex 4.98799 10.095 0
    endloop
  endfacet
  facet normal 0 0 -1
    outer loop
      vertex 4.98799 10.095 0
      vertex 4.37387 12.2878 0
      vertex 4.8425 12.8242 0
    endloop
  endfacet
  facet normal 0 0 -1
    outer loop
      vertex 20.4025 0 0
      vertex 15.1015 2.49599 0
      vertex 20.4025 2.49599 0
    endloop
  endfacet
  facet normal 0 0 -1
    outer loop
      vertex 7.657 14.016 0
      vertex 4.98799 10.095 0
      vertex 4.8425 12.8242 0
    endloop
  endfacet
  facet normal 0 0 -1
    outer loop
      vertex 7.657 0 0
      vertex 4.98799 0 0
      vertex 4.98799 10.095 0
    endloop
  endfacet
  facet normal 0 0 -1
    outer loop
      vertex 11.3495 1.37 0
      vertex 11.6155 2.02724 0
      vertex 15.1015 2.49599 0
    endloop
  endfacet
  facet normal 0 0 -1
    outer loop
      vertex 13.9312 5.01743 0
      vertex 15.8744 3.47717 0
      vertex 15.6475 3.23799 0
    endloop
  endfacet
  facet normal -0 0 -1
    outer loop
      vertex 16.6749 4.24768 0
      vertex 16.2168 3.81374 0
      vertex 14.9595 6.00699 0
    endloop
  endfacet
  facet normal -0 0 -1
    outer loop
      vertex 17.2485 4.77899 0
      vertex 16.6749 4.24768 0
      vertex 14.9595 6.00699 0
    endloop
  endfacet
  facet normal -0 0 -1
    outer loop
      vertex 17.8318 5.32556 0
      vertex 17.2485 4.77899 0
      vertex 15.7747 6.7803 0
    endloop
  endfacet
  facet normal 0 0 -1
    outer loop
      vertex 16.8812 7.92081 0
      vertex 18.9965 6.558 0
      vertex 18.7058 6.21506 0
    endloop
  endfacet
  facet normal 0 0 -1
    outer loop
      vertex 19.6298 7.46974 0
      vertex 17.4136 8.7003 0
      vertex 19.8723 7.91043 0
    endloop
  endfacet
  facet normal 0 0 -1
    outer loop
      vertex 17.5858 9.11024 0
      vertex 20.213 8.77261 0
      vertex 20.0655 8.34099 0
    endloop
  endfacet
  facet normal 0 0 -1
    outer loop
      vertex 11.3585 9.922 0
      vertex 14.0827 10.1907 0
      vertex 14.0185 9.66399 0
    endloop
  endfacet
  facet normal 0 -0 -1
    outer loop
      vertex 11.541 10.9388 0
      vertex 14.0827 10.1907 0
      vertex 11.3585 9.922 0
    endloop
  endfacet
  facet normal -0 0 -1
    outer loop
      vertex 14.3677 11.0022 0
      vertex 14.199 10.6367 0
      vertex 11.8505 11.8012 0
    endloop
  endfacet
  facet normal -0 0 -1
    outer loop
      vertex 20.3815 9.66962 0
      vertex 20.3183 9.2155 0
      vertex 17.7235 9.92299 0
    endloop
  endfacet
  facet normal 0 0 -1
    outer loop
      vertex 17.4535 11.0302 0
      vertex 19.7399 12.3126 0
      vertex 17.6035 10.7127 0
    endloop
  endfacet
  facet normal 0 0 -1
    outer loop
      vertex 17.2435 11.296 0
      vertex 19.2245 12.903 0
      vertex 17.4535 11.0302 0
    endloop
  endfacet
  facet normal 0 0 -1
    outer loop
      vertex 16.3186 11.746 0
      vertex 16.9608 13.9464 0
      vertex 16.6728 11.656 0
    endloop
  endfacet
  facet normal -0 0 -1
    outer loop
      vertex 15.9185 11.776 0
      vertex 15.5219 11.7454 0
      vertex 15.9855 14.016 0
    endloop
  endfacet
  facet normal -0 0 -1
    outer loop
      vertex 15.5219 11.7454 0
      vertex 15.168 11.6537 0
      vertex 15.0842 13.9564 0
    endloop
  endfacet
  facet normal -0 0 -1
    outer loop
      vertex 20.3289 10.9286 0
      vertex 17.6035 10.7127 0
      vertex 20.108 11.6545 0
    endloop
  endfacet
  facet normal -0 0 -1
    outer loop
      vertex 20.4025 10.135 0
      vertex 17.7235 9.92299 0
      vertex 17.6935 10.3437 0
    endloop
  endfacet
  facet normal 0 0 -1
    outer loop
      vertex 14.8569 11.5009 0
      vertex 13.5167 13.4799 0
      vertex 14.2613 13.7777 0
    endloop
  endfacet
  facet normal 0 -0 -1
    outer loop
      vertex 17.7235 9.92299 0
      vertex 20.3183 9.2155 0
      vertex 17.6891 9.51781 0
    endloop
  endfacet
  facet normal -0 0 -1
    outer loop
      vertex 14.199 10.6367 0
      vertex 14.0827 10.1907 0
      vertex 11.541 10.9388 0
    endloop
  endfacet
  facet normal 0 -0 -1
    outer loop
      vertex 11.8505 11.8012 0
      vertex 14.199 10.6367 0
      vertex 11.541 10.9388 0
    endloop
  endfacet
  facet normal 0 0 -1
    outer loop
      vertex 14.3677 11.0022 0
      vertex 11.8505 11.8012 0
      vertex 12.287 12.5093 0
    endloop
  endfacet
  facet normal 0 0 -1
    outer loop
      vertex 19.8723 7.91043 0
      vertex 17.5858 9.11024 0
      vertex 20.0655 8.34099 0
    endloop
  endfacet
  facet normal 0 -0 -1
    outer loop
      vertex 17.4136 8.7003 0
      vertex 19.3378 7.01894 0
      vertex 17.1725 8.28799 0
    endloop
  endfacet
  facet normal -0 0 -1
    outer loop
      vertex 18.3175 5.80424 0
      vertex 17.8318 5.32556 0
      vertex 16.4153 7.41824 0
    endloop
  endfacet
  facet normal 0 0 -1
    outer loop
      vertex 13.9312 5.01743 0
      vertex 16.2168 3.81374 0
      vertex 15.8744 3.47717 0
    endloop
  endfacet
  facet normal 0 0 -1
    outer loop
      vertex 15.487 3.04874 0
      vertex 13.9312 5.01743 0
      vertex 15.6475 3.23799 0
    endloop
  endfacet
  facet normal 0 -0 -1
    outer loop
      vertex 13.9312 5.01743 0
      vertex 15.3425 2.862 0
      vertex 13.088 4.13074 0
    endloop
  endfacet
  facet normal 0 0 -1
    outer loop
      vertex 14.3677 11.0022 0
      vertex 12.287 12.5093 0
      vertex 12.8505 13.063 0
    endloop
  endfacet
  facet normal -0 0 -1
    outer loop
      vertex 14.5885 11.287 0
      vertex 14.3677 11.0022 0
      vertex 12.8505 13.063 0
    endloop
  endfacet
  facet normal 0 -0 -1
    outer loop
      vertex 13.5167 13.4799 0
      vertex 14.5885 11.287 0
      vertex 12.8505 13.063 0
    endloop
  endfacet
  facet normal 0 0 -1
    outer loop
      vertex 14.5885 11.287 0
      vertex 13.5167 13.4799 0
      vertex 14.8569 11.5009 0
    endloop
  endfacet
  facet normal 0 0 -1
    outer loop
      vertex 14.2613 13.7777 0
      vertex 15.0842 13.9564 0
      vertex 15.168 11.6537 0
    endloop
  endfacet
  facet normal 0 0 -1
    outer loop
      vertex 14.2613 13.7777 0
      vertex 15.168 11.6537 0
      vertex 14.8569 11.5009 0
    endloop
  endfacet
  facet normal 0 0 -1
    outer loop
      vertex 15.9855 14.016 0
      vertex 15.5219 11.7454 0
      vertex 15.0842 13.9564 0
    endloop
  endfacet
  facet normal -0 0 -1
    outer loop
      vertex 16.9608 13.9464 0
      vertex 16.3186 11.746 0
      vertex 15.9855 14.016 0
    endloop
  endfacet
  facet normal 0 0 -1
    outer loop
      vertex 16.3186 11.746 0
      vertex 15.9185 11.776 0
      vertex 15.9855 14.016 0
    endloop
  endfacet
  facet normal 0 0 -1
    outer loop
      vertex 16.6728 11.656 0
      vertex 16.9608 13.9464 0
      vertex 17.8258 13.7377 0
    endloop
  endfacet
  facet normal -0 0 -1
    outer loop
      vertex 18.5804 13.3899 0
      vertex 16.9811 11.506 0
      vertex 17.8258 13.7377 0
    endloop
  endfacet
  facet normal 0 0 -1
    outer loop
      vertex 16.9811 11.506 0
      vertex 16.6728 11.656 0
      vertex 17.8258 13.7377 0
    endloop
  endfacet
  facet normal -0 0 -1
    outer loop
      vertex 19.2245 12.903 0
      vertex 17.2435 11.296 0
      vertex 18.5804 13.3899 0
    endloop
  endfacet
  facet normal 0 0 -1
    outer loop
      vertex 17.2435 11.296 0
      vertex 16.9811 11.506 0
      vertex 18.5804 13.3899 0
    endloop
  endfacet
  facet normal 0 0 -1
    outer loop
      vertex 17.4535 11.0302 0
      vertex 19.2245 12.903 0
      vertex 19.7399 12.3126 0
    endloop
  endfacet
  facet normal 0 0 -1
    outer loop
      vertex 17.6035 10.7127 0
      vertex 19.7399 12.3126 0
      vertex 20.108 11.6545 0
    endloop
  endfacet
  facet normal 0 0 -1
    outer loop
      vertex 20.4025 10.135 0
      vertex 17.6935 10.3437 0
      vertex 20.3289 10.9286 0
    endloop
  endfacet
  facet normal 0 0 -1
    outer loop
      vertex 17.6935 10.3437 0
      vertex 17.6035 10.7127 0
      vertex 20.3289 10.9286 0
    endloop
  endfacet
  facet normal 0 0 -1
    outer loop
      vertex 20.3815 9.66962 0
      vertex 17.7235 9.92299 0
      vertex 20.4025 10.135 0
    endloop
  endfacet
  facet normal 0 0 -1
    outer loop
      vertex 17.5858 9.11024 0
      vertex 17.6891 9.51781 0
      vertex 20.213 8.77261 0
    endloop
  endfacet
  facet normal 0 0 -1
    outer loop
      vertex 17.6891 9.51781 0
      vertex 20.3183 9.2155 0
      vertex 20.213 8.77261 0
    endloop
  endfacet
  facet normal 0 -0 -1
    outer loop
      vertex 17.5858 9.11024 0
      vertex 19.8723 7.91043 0
      vertex 17.4136 8.7003 0
    endloop
  endfacet
  facet normal 0 0 -1
    outer loop
      vertex 17.4136 8.7003 0
      vertex 19.6298 7.46974 0
      vertex 19.3378 7.01894 0
    endloop
  endfacet
  facet normal 0 0 -1
    outer loop
      vertex 17.1725 8.28799 0
      vertex 19.3378 7.01894 0
      vertex 18.9965 6.558 0
    endloop
  endfacet
  facet normal 0 0 -1
    outer loop
      vertex 16.8812 7.92081 0
      vertex 17.1725 8.28799 0
      vertex 18.9965 6.558 0
    endloop
  endfacet
  facet normal 0 0 -1
    outer loop
      vertex 18.3175 5.80424 0
      vertex 16.8812 7.92081 0
      vertex 18.7058 6.21506 0
    endloop
  endfacet
  facet normal 0 0 -1
    outer loop
      vertex 18.3175 5.80424 0
      vertex 16.4153 7.41824 0
      vertex 16.8812 7.92081 0
    endloop
  endfacet
  facet normal 0 0 -1
    outer loop
      vertex 17.8318 5.32556 0
      vertex 15.7747 6.7803 0
      vertex 16.4153 7.41824 0
    endloop
  endfacet
  facet normal 0 0 -1
    outer loop
      vertex 17.2485 4.77899 0
      vertex 14.9595 6.00699 0
      vertex 15.7747 6.7803 0
    endloop
  endfacet
  facet normal 0 0 -1
    outer loop
      vertex 16.2168 3.81374 0
      vertex 13.9312 5.01743 0
      vertex 14.9595 6.00699 0
    endloop
  endfacet
  facet normal 0 0 -1
    outer loop
      vertex 13.9312 5.01743 0
      vertex 15.487 3.04874 0
      vertex 15.3425 2.862 0
    endloop
  endfacet
  facet normal 0 0 -1
    outer loop
      vertex 13.088 4.13074 0
      vertex 15.3425 2.862 0
      vertex 15.214 2.67775 0
    endloop
  endfacet
  facet normal 0 0 -1
    outer loop
      vertex 15.1015 2.49599 0
      vertex 13.088 4.13074 0
      vertex 15.214 2.67775 0
    endloop
  endfacet
  facet normal 0 0 -1
    outer loop
      vertex 15.1015 2.49599 0
      vertex 12.4302 3.34692 0
      vertex 13.088 4.13074 0
    endloop
  endfacet
  facet normal 0 0 -1
    outer loop
      vertex 15.1015 2.49599 0
      vertex 11.9575 2.66599 0
      vertex 12.4302 3.34692 0
    endloop
  endfacet
  facet normal -0 0 -1
    outer loop
      vertex 15.1015 2.49599 0
      vertex 11.6155 2.02724 0
      vertex 11.9575 2.66599 0
    endloop
  endfacet
  facet normal 0 0 -1
    outer loop
      vertex 11.1595 0.694244 0
      vertex 11.3495 1.37 0
      vertex 15.1015 2.49599 0
    endloop
  endfacet
  facet normal 0 0 -1
    outer loop
      vertex 11.0455 0 0
      vertex 11.1595 0.694244 0
      vertex 15.1015 2.49599 0
    endloop
  endfacet
  facet normal 0 0 -1
    outer loop
      vertex 20.4025 0 0
      vertex 11.0455 0 0
      vertex 15.1015 2.49599 0
    endloop
  endfacet
  facet normal 0 0 1
    outer loop
      vertex 5.21487 13.4003 1
      vertex 7.657 14.016 1
      vertex 5.491 14.016 1
    endloop
  endfacet
  facet normal 0 0 1
    outer loop
      vertex 4.98799 10.095 1
      vertex 4.37387 12.2878 1
      vertex 3.80899 11.791 1
    endloop
  endfacet
  facet normal -0 0 1
    outer loop
      vertex 5.21487 13.4003 1
      vertex 4.8425 12.8242 1
      vertex 7.657 14.016 1
    endloop
  endfacet
  facet normal 0 -0 1
    outer loop
      vertex 4.2238 9.45319 1
      vertex 4.98799 10.095 1
      vertex 3.20775 11.3527 1
    endloop
  endfacet
  facet normal 0 0 1
    outer loop
      vertex 4.2238 9.45319 1
      vertex 3.20775 11.3527 1
      vertex 2.629 10.9907 1
    endloop
  endfacet
  facet normal 0 0 1
    outer loop
      vertex 3.39424 8.90074 1
      vertex 2.629 10.9907 1
      vertex 2.07274 10.7052 1
    endloop
  endfacet
  facet normal 0 0 1
    outer loop
      vertex 3.39424 8.90074 1
      vertex 2.07274 10.7052 1
      vertex 2.4993 8.43768 1
    endloop
  endfacet
  facet normal 0 0 1
    outer loop
      vertex 2.07274 10.7052 1
      vertex 1.53899 10.496 1
      vertex 2.4993 8.43768 1
    endloop
  endfacet
  facet normal 0 0 1
    outer loop
      vertex 1.53899 10.496 1
      vertex 1.53899 8.064 1
      vertex 2.4993 8.43768 1
    endloop
  endfacet
  facet normal -0 0 1
    outer loop
      vertex 4.98799 10.095 1
      vertex 7.657 0 1
      vertex 7.657 14.016 1
    endloop
  endfacet
  facet normal 0 0 1
    outer loop
      vertex 4.2238 9.45319 1
      vertex 2.629 10.9907 1
      vertex 3.39424 8.90074 1
    endloop
  endfacet
  facet normal 0 0 1
    outer loop
      vertex 4.98799 10.095 1
      vertex 3.80899 11.791 1
      vertex 3.20775 11.3527 1
    endloop
  endfacet
  facet normal 0 0 1
    outer loop
      vertex 4.8425 12.8242 1
      vertex 4.37387 12.2878 1
      vertex 4.98799 10.095 1
    endloop
  endfacet
  facet normal 0 0 1
    outer loop
      vertex 20.4025 2.49599 1
      vertex 15.1015 2.49599 1
      vertex 20.4025 0 1
    endloop
  endfacet
  facet normal -0 0 1
    outer loop
      vertex 4.8425 12.8242 1
      vertex 4.98799 10.095 1
      vertex 7.657 14.016 1
    endloop
  endfacet
  facet normal 0 0 1
    outer loop
      vertex 4.98799 10.095 1
      vertex 4.98799 0 1
      vertex 7.657 0 1
    endloop
  endfacet
  facet normal 0 0 1
    outer loop
      vertex 15.1015 2.49599 1
      vertex 11.6155 2.02724 1
      vertex 11.3495 1.37 1
    endloop
  endfacet
  facet normal 0 -0 1
    outer loop
      vertex 15.6475 3.23799 1
      vertex 15.8744 3.47717 1
      vertex 13.9312 5.01743 1
    endloop
  endfacet
  facet normal 0 0 1
    outer loop
      vertex 14.9595 6.00699 1
      vertex 16.2168 3.81374 1
      vertex 16.6749 4.24768 1
    endloop
  endfacet
  facet normal 0 0 1
    outer loop
      vertex 14.9595 6.00699 1
      vertex 16.6749 4.24768 1
      vertex 17.2485 4.77899 1
    endloop
  endfacet
  facet normal 0 0 1
    outer loop
      vertex 15.7747 6.7803 1
      vertex 17.2485 4.77899 1
      vertex 17.8318 5.32556 1
    endloop
  endfacet
  facet normal 0 -0 1
    outer loop
      vertex 18.7058 6.21506 1
      vertex 18.9965 6.558 1
      vertex 16.8812 7.92081 1
    endloop
  endfacet
  facet normal 0 0 1
    outer loop
      vertex 19.8723 7.91043 1
      vertex 17.4136 8.7003 1
      vertex 19.6298 7.46974 1
    endloop
  endfacet
  facet normal 0 -0 1
    outer loop
      vertex 20.0655 8.34099 1
      vertex 20.213 8.77261 1
      vertex 17.5858 9.11024 1
    endloop
  endfacet
  facet normal 0 -0 1
    outer loop
      vertex 14.0185 9.66399 1
      vertex 14.0827 10.1907 1
      vertex 11.3585 9.922 1
    endloop
  endfacet
  facet normal 0 0 1
    outer loop
      vertex 11.3585 9.922 1
      vertex 14.0827 10.1907 1
      vertex 11.541 10.9388 1
    endloop
  endfacet
  facet normal 0 0 1
    outer loop
      vertex 11.8505 11.8012 1
      vertex 14.199 10.6367 1
      vertex 14.3677 11.0022 1
    endloop
  endfacet
  facet normal 0 0 1
    outer loop
      vertex 17.7235 9.92299 1
      vertex 20.3183 9.2155 1
      vertex 20.3815 9.66962 1
    endloop
  endfacet
  facet normal 0 -0 1
    outer loop
      vertex 17.6035 10.7127 1
      vertex 19.7399 12.3126 1
      vertex 17.4535 11.0302 1
    endloop
  endfacet
  facet normal 0 -0 1
    outer loop
      vertex 17.4535 11.0302 1
      vertex 19.2245 12.903 1
      vertex 17.2435 11.296 1
    endloop
  endfacet
  facet normal 0 -0 1
    outer loop
      vertex 16.6728 11.656 1
      vertex 16.9608 13.9464 1
      vertex 16.3186 11.746 1
    endloop
  endfacet
  facet normal 0 0 1
    outer loop
      vertex 15.9855 14.016 1
      vertex 15.5219 11.7454 1
      vertex 15.9185 11.776 1
    endloop
  endfacet
  facet normal 0 0 1
    outer loop
      vertex 15.0842 13.9564 1
      vertex 15.168 11.6537 1
      vertex 15.5219 11.7454 1
    endloop
  endfacet
  facet normal 0 0 1
    outer loop
      vertex 20.108 11.6545 1
      vertex 17.6035 10.7127 1
      vertex 20.3289 10.9286 1
    endloop
  endfacet
  facet normal 0 0 1
    outer loop
      vertex 17.6935 10.3437 1
      vertex 17.7235 9.92299 1
      vertex 20.4025 10.135 1
    endloop
  endfacet
  facet normal 0 0 1
    outer loop
      vertex 14.2613 13.7777 1
      vertex 13.5167 13.4799 1
      vertex 14.8569 11.5009 1
    endloop
  endfacet
  facet normal -0 0 1
    outer loop
      vertex 17.6891 9.51781 1
      vertex 20.3183 9.2155 1
      vertex 17.7235 9.92299 1
    endloop
  endfacet
  facet normal 0 0 1
    outer loop
      vertex 11.541 10.9388 1
      vertex 14.0827 10.1907 1
      vertex 14.199 10.6367 1
    endloop
  endfacet
  facet normal -0 0 1
    outer loop
      vertex 11.541 10.9388 1
      vertex 14.199 10.6367 1
      vertex 11.8505 11.8012 1
    endloop
  endfacet
  facet normal 0 0 1
    outer loop
      vertex 12.287 12.5093 1
      vertex 11.8505 11.8012 1
      vertex 14.3677 11.0022 1
    endloop
  endfacet
  facet normal 0 0 1
    outer loop
      vertex 20.0655 8.34099 1
      vertex 17.5858 9.11024 1
      vertex 19.8723 7.91043 1
    endloop
  endfacet
  facet normal -0 0 1
    outer loop
      vertex 17.1725 8.28799 1
      vertex 19.3378 7.01894 1
      vertex 17.4136 8.7003 1
    endloop
  endfacet
  facet normal 0 0 1
    outer loop
      vertex 16.4153 7.41824 1
      vertex 17.8318 5.32556 1
      vertex 18.3175 5.80424 1
    endloop
  endfacet
  facet normal 0 -0 1
    outer loop
      vertex 15.8744 3.47717 1
      vertex 16.2168 3.81374 1
      vertex 13.9312 5.01743 1
    endloop
  endfacet
  facet normal 0 0 1
    outer loop
      vertex 15.6475 3.23799 1
      vertex 13.9312 5.01743 1
      vertex 15.487 3.04874 1
    endloop
  endfacet
  facet normal -0 0 1
    outer loop
      vertex 13.088 4.13074 1
      vertex 15.3425 2.862 1
      vertex 13.9312 5.01743 1
    endloop
  endfacet
  facet normal 0 0 1
    outer loop
      vertex 12.8505 13.063 1
      vertex 12.287 12.5093 1
      vertex 14.3677 11.0022 1
    endloop
  endfacet
  facet normal 0 0 1
    outer loop
      vertex 12.8505 13.063 1
      vertex 14.3677 11.0022 1
      vertex 14.5885 11.287 1
    endloop
  endfacet
  facet normal -0 0 1
    outer loop
      vertex 12.8505 13.063 1
      vertex 14.5885 11.287 1
      vertex 13.5167 13.4799 1
    endloop
  endfacet
  facet normal 0 0 1
    outer loop
      vertex 14.8569 11.5009 1
      vertex 13.5167 13.4799 1
      vertex 14.5885 11.287 1
    endloop
  endfacet
  facet normal 0 0 1
    outer loop
      vertex 15.168 11.6537 1
      vertex 15.0842 13.9564 1
      vertex 14.2613 13.7777 1
    endloop
  endfacet
  facet normal 0 -0 1
    outer loop
      vertex 14.8569 11.5009 1
      vertex 15.168 11.6537 1
      vertex 14.2613 13.7777 1
    endloop
  endfacet
  facet normal -0 0 1
    outer loop
      vertex 15.0842 13.9564 1
      vertex 15.5219 11.7454 1
      vertex 15.9855 14.016 1
    endloop
  endfacet
  facet normal 0 0 1
    outer loop
      vertex 15.9855 14.016 1
      vertex 16.3186 11.746 1
      vertex 16.9608 13.9464 1
    endloop
  endfacet
  facet normal 0 0 1
    outer loop
      vertex 15.9855 14.016 1
      vertex 15.9185 11.776 1
      vertex 16.3186 11.746 1
    endloop
  endfacet
  facet normal 0 0 1
    outer loop
      vertex 17.8258 13.7377 1
      vertex 16.9608 13.9464 1
      vertex 16.6728 11.656 1
    endloop
  endfacet
  facet normal 0 0 1
    outer loop
      vertex 17.8258 13.7377 1
      vertex 16.9811 11.506 1
      vertex 18.5804 13.3899 1
    endloop
  endfacet
  facet normal 0 0 1
    outer loop
      vertex 17.8258 13.7377 1
      vertex 16.6728 11.656 1
      vertex 16.9811 11.506 1
    endloop
  endfacet
  facet normal 0 0 1
    outer loop
      vertex 18.5804 13.3899 1
      vertex 17.2435 11.296 1
      vertex 19.2245 12.903 1
    endloop
  endfacet
  facet normal 0 0 1
    outer loop
      vertex 18.5804 13.3899 1
      vertex 16.9811 11.506 1
      vertex 17.2435 11.296 1
    endloop
  endfacet
  facet normal 0 0 1
    outer loop
      vertex 19.7399 12.3126 1
      vertex 19.2245 12.903 1
      vertex 17.4535 11.0302 1
    endloop
  endfacet
  facet normal 0 0 1
    outer loop
      vertex 20.108 11.6545 1
      vertex 19.7399 12.3126 1
      vertex 17.6035 10.7127 1
    endloop
  endfacet
  facet normal 0 0 1
    outer loop
      vertex 20.3289 10.9286 1
      vertex 17.6935 10.3437 1
      vertex 20.4025 10.135 1
    endloop
  endfacet
  facet normal 0 0 1
    outer loop
      vertex 20.3289 10.9286 1
      vertex 17.6035 10.7127 1
      vertex 17.6935 10.3437 1
    endloop
  endfacet
  facet normal 0 0 1
    outer loop
      vertex 20.4025 10.135 1
      vertex 17.7235 9.92299 1
      vertex 20.3815 9.66962 1
    endloop
  endfacet
  facet normal 0 0 1
    outer loop
      vertex 20.213 8.77261 1
      vertex 17.6891 9.51781 1
      vertex 17.5858 9.11024 1
    endloop
  endfacet
  facet normal 0 -0 1
    outer loop
      vertex 20.213 8.77261 1
      vertex 20.3183 9.2155 1
      vertex 17.6891 9.51781 1
    endloop
  endfacet
  facet normal -0 0 1
    outer loop
      vertex 17.4136 8.7003 1
      vertex 19.8723 7.91043 1
      vertex 17.5858 9.11024 1
    endloop
  endfacet
  facet normal 0 -0 1
    outer loop
      vertex 19.3378 7.01894 1
      vertex 19.6298 7.46974 1
      vertex 17.4136 8.7003 1
    endloop
  endfacet
  facet normal 0 -0 1
    outer loop
      vertex 18.9965 6.558 1
      vertex 19.3378 7.01894 1
      vertex 17.1725 8.28799 1
    endloop
  endfacet
  facet normal 0 0 1
    outer loop
      vertex 18.9965 6.558 1
      vertex 17.1725 8.28799 1
      vertex 16.8812 7.92081 1
    endloop
  endfacet
  facet normal 0 0 1
    outer loop
      vertex 18.7058 6.21506 1
      vertex 16.8812 7.92081 1
      vertex 18.3175 5.80424 1
    endloop
  endfacet
  facet normal 0 0 1
    outer loop
      vertex 16.8812 7.92081 1
      vertex 16.4153 7.41824 1
      vertex 18.3175 5.80424 1
    endloop
  endfacet
  facet normal 0 0 1
    outer loop
      vertex 16.4153 7.41824 1
      vertex 15.7747 6.7803 1
      vertex 17.8318 5.32556 1
    endloop
  endfacet
  facet normal 0 0 1
    outer loop
      vertex 15.7747 6.7803 1
      vertex 14.9595 6.00699 1
      vertex 17.2485 4.77899 1
    endloop
  endfacet
  facet normal 0 0 1
    outer loop
      vertex 14.9595 6.00699 1
      vertex 13.9312 5.01743 1
      vertex 16.2168 3.81374 1
    endloop
  endfacet
  facet normal 0 -0 1
    outer loop
      vertex 15.3425 2.862 1
      vertex 15.487 3.04874 1
      vertex 13.9312 5.01743 1
    endloop
  endfacet
  facet normal 0 -0 1
    outer loop
      vertex 15.214 2.67775 1
      vertex 15.3425 2.862 1
      vertex 13.088 4.13074 1
    endloop
  endfacet
  facet normal 0 0 1
    outer loop
      vertex 15.214 2.67775 1
      vertex 13.088 4.13074 1
      vertex 15.1015 2.49599 1
    endloop
  endfacet
  facet normal 0 0 1
    outer loop
      vertex 13.088 4.13074 1
      vertex 12.4302 3.34692 1
      vertex 15.1015 2.49599 1
    endloop
  endfacet
  facet normal 0 0 1
    outer loop
      vertex 12.4302 3.34692 1
      vertex 11.9575 2.66599 1
      vertex 15.1015 2.49599 1
    endloop
  endfacet
  facet normal 0 0 1
    outer loop
      vertex 11.9575 2.66599 1
      vertex 11.6155 2.02724 1
      vertex 15.1015 2.49599 1
    endloop
  endfacet
  facet normal 0 0 1
    outer loop
      vertex 15.1015 2.49599 1
      vertex 11.3495 1.37 1
      vertex 11.1595 0.694244 1
    endloop
  endfacet
  facet normal 0 0 1
    outer loop
      vertex 15.1015 2.49599 1
      vertex 11.1595 0.694244 1
      vertex 11.0455 0 1
    endloop
  endfacet
  facet normal 0 0 1
    outer loop
      vertex 15.1015 2.49599 1
      vertex 11.0455 0 1
      vertex 20.4025 0 1
    endloop
  endfacet
  facet normal 0 1 0
    outer loop
      vertex 5.491 14.016 0
      vertex 7.657 14.016 1
      vertex 7.657 14.016 0
    endloop
  endfacet
  facet normal 0 1 0
    outer loop
      vertex 5.491 14.016 0
      vertex 5.491 14.016 1
      vertex 7.657 14.016 1
    endloop
  endfacet
  facet normal -0.912439 0.409212 0
    outer loop
      vertex 5.21487 13.4003 0
      vertex 5.491 14.016 1
      vertex 5.491 14.016 0
    endloop
  endfacet
  facet normal -0.912439 0.409212 0
    outer loop
      vertex 5.21487 13.4003 0
      vertex 5.21487 13.4003 1
      vertex 5.491 14.016 1
    endloop
  endfacet
  facet normal -0.839836 0.54284 0
    outer loop
      vertex 4.8425 12.8242 0
      vertex 5.21487 13.4003 1
      vertex 5.21487 13.4003 0
    endloop
  endfacet
  facet normal -0.839836 0.54284 0
    outer loop
      vertex 4.8425 12.8242 0
      vertex 4.8425 12.8242 1
      vertex 5.21487 13.4003 1
    endloop
  endfacet
  facet normal -0.753077 0.657932 0
    outer loop
      vertex 4.37387 12.2878 0
      vertex 4.8425 12.8242 1
      vertex 4.8425 12.8242 0
    endloop
  endfacet
  facet normal -0.753077 0.657932 0
    outer loop
      vertex 4.37387 12.2878 0
      vertex 4.37387 12.2878 1
      vertex 4.8425 12.8242 1
    endloop
  endfacet
  facet normal -0.660407 0.750908 0
    outer loop
      vertex 3.80899 11.791 0
      vertex 4.37387 12.2878 1
      vertex 4.37387 12.2878 0
    endloop
  endfacet
  facet normal -0.660407 0.750908 0
    outer loop
      vertex 3.80899 11.791 0
      vertex 3.80899 11.791 1
      vertex 4.37387 12.2878 1
    endloop
  endfacet
  facet normal -0.589081 0.808074 0
    outer loop
      vertex 3.20775 11.3527 0
      vertex 3.80899 11.791 1
      vertex 3.80899 11.791 0
    endloop
  endfacet
  facet normal -0.589081 0.808074 0
    outer loop
      vertex 3.20775 11.3527 0
      vertex 3.20775 11.3527 1
      vertex 3.80899 11.791 1
    endloop
  endfacet
  facet normal -0.530295 0.847813 0
    outer loop
      vertex 2.629 10.9907 0
      vertex 3.20775 11.3527 1
      vertex 3.20775 11.3527 0
    endloop
  endfacet
  facet normal -0.530295 0.847813 0
    outer loop
      vertex 2.629 10.9907 0
      vertex 2.629 10.9907 1
      vertex 3.20775 11.3527 1
    endloop
  endfacet
  facet normal -0.456619 0.889663 0
    outer loop
      vertex 2.07274 10.7052 0
      vertex 2.629 10.9907 1
      vertex 2.629 10.9907 0
    endloop
  endfacet
  facet normal -0.456619 0.889663 0
    outer loop
      vertex 2.07274 10.7052 0
      vertex 2.07274 10.7052 1
      vertex 2.629 10.9907 1
    endloop
  endfacet
  facet normal -0.364916 0.931041 0
    outer loop
      vertex 1.53899 10.496 0
      vertex 2.07274 10.7052 1
      vertex 2.07274 10.7052 0
    endloop
  endfacet
  facet normal -0.364916 0.931041 0
    outer loop
      vertex 1.53899 10.496 0
      vertex 1.53899 10.496 1
      vertex 2.07274 10.7052 1
    endloop
  endfacet
  facet normal -1 0 0
    outer loop
      vertex 1.53899 8.064 0
      vertex 1.53899 10.496 1
      vertex 1.53899 10.496 0
    endloop
  endfacet
  facet normal -1 0 0
    outer loop
      vertex 1.53899 8.064 0
      vertex 1.53899 8.064 1
      vertex 1.53899 10.496 1
    endloop
  endfacet
  facet normal 0.362637 -0.931931 0
    outer loop
      vertex 2.4993 8.43768 0
      vertex 1.53899 8.064 1
      vertex 1.53899 8.064 0
    endloop
  endfacet
  facet normal 0.362637 -0.931931 0
    outer loop
      vertex 2.4993 8.43768 0
      vertex 2.4993 8.43768 1
      vertex 1.53899 8.064 1
    endloop
  endfacet
  facet normal 0.459548 -0.888153 0
    outer loop
      vertex 3.39424 8.90074 0
      vertex 2.4993 8.43768 1
      vertex 2.4993 8.43768 0
    endloop
  endfacet
  facet normal 0.459548 -0.888153 0
    outer loop
      vertex 3.39424 8.90074 0
      vertex 3.39424 8.90074 1
      vertex 2.4993 8.43768 1
    endloop
  endfacet
  facet normal 0.55429 -0.832323 0
    outer loop
      vertex 4.2238 9.45319 0
      vertex 3.39424 8.90074 1
      vertex 3.39424 8.90074 0
    endloop
  endfacet
  facet normal 0.55429 -0.832323 0
    outer loop
      vertex 4.2238 9.45319 0
      vertex 4.2238 9.45319 1
      vertex 3.39424 8.90074 1
    endloop
  endfacet
  facet normal 0.643128 -0.765759 0
    outer loop
      vertex 4.98799 10.095 0
      vertex 4.2238 9.45319 1
      vertex 4.2238 9.45319 0
    endloop
  endfacet
  facet normal 0.643128 -0.765759 0
    outer loop
      vertex 4.98799 10.095 0
      vertex 4.98799 10.095 1
      vertex 4.2238 9.45319 1
    endloop
  endfacet
  facet normal -1 0 0
    outer loop
      vertex 4.98799 0 0
      vertex 4.98799 10.095 1
      vertex 4.98799 10.095 0
    endloop
  endfacet
  facet normal -1 0 0
    outer loop
      vertex 4.98799 0 0
      vertex 4.98799 0 1
      vertex 4.98799 10.095 1
    endloop
  endfacet
  facet normal 0 -1 0
    outer loop
      vertex 7.657 0 0
      vertex 4.98799 0 1
      vertex 4.98799 0 0
    endloop
  endfacet
  facet normal 0 -1 0
    outer loop
      vertex 7.657 0 0
      vertex 7.657 0 1
      vertex 4.98799 0 1
    endloop
  endfacet
  facet normal 1 0 0
    outer loop
      vertex 7.657 14.016 0
      vertex 7.657 0 1
      vertex 7.657 0 0
    endloop
  endfacet
  facet normal 1 0 -0
    outer loop
      vertex 7.657 14.016 0
      vertex 7.657 14.016 1
      vertex 7.657 0 1
    endloop
  endfacet
  facet normal 0 1 0
    outer loop
      vertex 15.1015 2.49599 0
      vertex 20.4025 2.49599 1
      vertex 20.4025 2.49599 0
    endloop
  endfacet
  facet normal 0 1 0
    outer loop
      vertex 15.1015 2.49599 0
      vertex 15.1015 2.49599 1
      vertex 20.4025 2.49599 1
    endloop
  endfacet
  facet normal 0.850303 -0.526293 0
    outer loop
      vertex 15.214 2.67775 0
      vertex 15.1015 2.49599 1
      vertex 15.1015 2.49599 0
    endloop
  endfacet
  facet normal 0.850303 -0.526293 0
    outer loop
      vertex 15.214 2.67775 0
      vertex 15.214 2.67775 1
      vertex 15.1015 2.49599 1
    endloop
  endfacet
  facet normal 0.820224 -0.572042 0
    outer loop
      vertex 15.3425 2.862 0
      vertex 15.214 2.67775 1
      vertex 15.214 2.67775 0
    endloop
  endfacet
  facet normal 0.820224 -0.572042 0
    outer loop
      vertex 15.3425 2.862 0
      vertex 15.3425 2.862 1
      vertex 15.214 2.67775 1
    endloop
  endfacet
  facet normal 0.790873 -0.61198 0
    outer loop
      vertex 15.487 3.04874 0
      vertex 15.3425 2.862 1
      vertex 15.3425 2.862 0
    endloop
  endfacet
  facet normal 0.790873 -0.61198 0
    outer loop
      vertex 15.487 3.04874 0
      vertex 15.487 3.04874 1
      vertex 15.3425 2.862 1
    endloop
  endfacet
  facet normal 0.76266 -0.6468 0
    outer loop
      vertex 15.6475 3.23799 0
      vertex 15.487 3.04874 1
      vertex 15.487 3.04874 0
    endloop
  endfacet
  facet normal 0.76266 -0.6468 0
    outer loop
      vertex 15.6475 3.23799 0
      vertex 15.6475 3.23799 1
      vertex 15.487 3.04874 1
    endloop
  endfacet
  facet normal 0.725485 -0.688238 0
    outer loop
      vertex 15.8744 3.47717 0
      vertex 15.6475 3.23799 1
      vertex 15.6475 3.23799 0
    endloop
  endfacet
  facet normal 0.725485 -0.688238 0
    outer loop
      vertex 15.8744 3.47717 0
      vertex 15.8744 3.47717 1
      vertex 15.6475 3.23799 1
    endloop
  endfacet
  facet normal 0.701009 -0.713152 0
    outer loop
      vertex 16.2168 3.81374 0
      vertex 15.8744 3.47717 1
      vertex 15.8744 3.47717 0
    endloop
  endfacet
  facet normal 0.701009 -0.713152 0
    outer loop
      vertex 16.2168 3.81374 0
      vertex 16.2168 3.81374 1
      vertex 15.8744 3.47717 1
    endloop
  endfacet
  facet normal 0.687703 -0.725992 0
    outer loop
      vertex 16.6749 4.24768 0
      vertex 16.2168 3.81374 1
      vertex 16.2168 3.81374 0
    endloop
  endfacet
  facet normal 0.687703 -0.725992 0
    outer loop
      vertex 16.6749 4.24768 0
      vertex 16.6749 4.24768 1
      vertex 16.2168 3.81374 1
    endloop
  endfacet
  facet normal 0.679545 -0.733634 0
    outer loop
      vertex 17.2485 4.77899 0
      vertex 16.6749 4.24768 1
      vertex 16.6749 4.24768 0
    endloop
  endfacet
  facet normal 0.679545 -0.733634 0
    outer loop
      vertex 17.2485 4.77899 0
      vertex 17.2485 4.77899 1
      vertex 16.6749 4.24768 1
    endloop
  endfacet
  facet normal 0.683759 -0.729708 0
    outer loop
      vertex 17.8318 5.32556 0
      vertex 17.2485 4.77899 1
      vertex 17.2485 4.77899 0
    endloop
  endfacet
  facet normal 0.683759 -0.729708 0
    outer loop
      vertex 17.8318 5.32556 0
      vertex 17.8318 5.32556 1
      vertex 17.2485 4.77899 1
    endloop
  endfacet
  facet normal 0.701941 -0.712235 0
    outer loop
      vertex 18.3175 5.80424 0
      vertex 17.8318 5.32556 1
      vertex 17.8318 5.32556 0
    endloop
  endfacet
  facet normal 0.701941 -0.712235 0
    outer loop
      vertex 18.3175 5.80424 0
      vertex 18.3175 5.80424 1
      vertex 17.8318 5.32556 1
    endloop
  endfacet
  facet normal 0.726745 -0.686907 0
    outer loop
      vertex 18.7058 6.21506 0
      vertex 18.3175 5.80424 1
      vertex 18.3175 5.80424 0
    endloop
  endfacet
  facet normal 0.726745 -0.686907 0
    outer loop
      vertex 18.7058 6.21506 0
      vertex 18.7058 6.21506 1
      vertex 18.3175 5.80424 1
    endloop
  endfacet
  facet normal 0.762816 -0.646616 0
    outer loop
      vertex 18.9965 6.558 0
      vertex 18.7058 6.21506 1
      vertex 18.7058 6.21506 0
    endloop
  endfacet
  facet normal 0.762816 -0.646616 0
    outer loop
      vertex 18.9965 6.558 0
      vertex 18.9965 6.558 1
      vertex 18.7058 6.21506 1
    endloop
  endfacet
  facet normal 0.803671 -0.595073 0
    outer loop
      vertex 19.3378 7.01894 0
      vertex 18.9965 6.558 1
      vertex 18.9965 6.558 0
    endloop
  endfacet
  facet normal 0.803671 -0.595073 0
    outer loop
      vertex 19.3378 7.01894 0
      vertex 19.3378 7.01894 1
      vertex 18.9965 6.558 1
    endloop
  endfacet
  facet normal 0.83931 -0.543653 0
    outer loop
      vertex 19.6298 7.46974 0
      vertex 19.3378 7.01894 1
      vertex 19.3378 7.01894 0
    endloop
  endfacet
  facet normal 0.83931 -0.543653 0
    outer loop
      vertex 19.6298 7.46974 0
      vertex 19.6298 7.46974 1
      vertex 19.3378 7.01894 1
    endloop
  endfacet
  facet normal 0.876115 -0.482103 0
    outer loop
      vertex 19.8723 7.91043 0
      vertex 19.6298 7.46974 1
      vertex 19.6298 7.46974 0
    endloop
  endfacet
  facet normal 0.876115 -0.482103 0
    outer loop
      vertex 19.8723 7.91043 0
      vertex 19.8723 7.91043 1
      vertex 19.6298 7.46974 1
    endloop
  endfacet
  facet normal 0.912359 -0.409392 0
    outer loop
      vertex 20.0655 8.34099 0
      vertex 19.8723 7.91043 1
      vertex 19.8723 7.91043 0
    endloop
  endfacet
  facet normal 0.912359 -0.409392 0
    outer loop
      vertex 20.0655 8.34099 0
      vertex 20.0655 8.34099 1
      vertex 19.8723 7.91043 1
    endloop
  endfacet
  facet normal 0.946271 -0.323375 0
    outer loop
      vertex 20.213 8.77261 0
      vertex 20.0655 8.34099 1
      vertex 20.0655 8.34099 0
    endloop
  endfacet
  facet normal 0.946271 -0.323375 0
    outer loop
      vertex 20.213 8.77261 0
      vertex 20.213 8.77261 1
      vertex 20.0655 8.34099 1
    endloop
  endfacet
  facet normal 0.97288 -0.231309 0
    outer loop
      vertex 20.3183 9.2155 0
      vertex 20.213 8.77261 1
      vertex 20.213 8.77261 0
    endloop
  endfacet
  facet normal 0.97288 -0.231309 0
    outer loop
      vertex 20.3183 9.2155 0
      vertex 20.3183 9.2155 1
      vertex 20.213 8.77261 1
    endloop
  endfacet
  facet normal 0.990454 -0.137842 0
    outer loop
      vertex 20.3815 9.66962 0
      vertex 20.3183 9.2155 1
      vertex 20.3183 9.2155 0
    endloop
  endfacet
  facet normal 0.990454 -0.137842 0
    outer loop
      vertex 20.3815 9.66962 0
      vertex 20.3815 9.66962 1
      vertex 20.3183 9.2155 1
    endloop
  endfacet
  facet normal 0.998983 -0.0450785 0
    outer loop
      vertex 20.4025 10.135 0
      vertex 20.3815 9.66962 1
      vertex 20.3815 9.66962 0
    endloop
  endfacet
  facet normal 0.998983 -0.0450785 0
    outer loop
      vertex 20.4025 10.135 0
      vertex 20.4025 10.135 1
      vertex 20.3815 9.66962 1
    endloop
  endfacet
  facet normal 0.995727 0.0923457 0
    outer loop
      vertex 20.3289 10.9286 0
      vertex 20.4025 10.135 1
      vertex 20.4025 10.135 0
    endloop
  endfacet
  facet normal 0.995727 0.0923457 -0
    outer loop
      vertex 20.3289 10.9286 0
      vertex 20.3289 10.9286 1
      vertex 20.4025 10.135 1
    endloop
  endfacet
  facet normal 0.956683 0.29113 0
    outer loop
      vertex 20.108 11.6545 0
      vertex 20.3289 10.9286 1
      vertex 20.3289 10.9286 0
    endloop
  endfacet
  facet normal 0.956683 0.29113 -0
    outer loop
      vertex 20.108 11.6545 0
      vertex 20.108 11.6545 1
      vertex 20.3289 10.9286 1
    endloop
  endfacet
  facet normal 0.872752 0.488163 0
    outer loop
      vertex 19.7399 12.3126 0
      vertex 20.108 11.6545 1
      vertex 20.108 11.6545 0
    endloop
  endfacet
  facet normal 0.872752 0.488163 -0
    outer loop
      vertex 19.7399 12.3126 0
      vertex 19.7399 12.3126 1
      vertex 20.108 11.6545 1
    endloop
  endfacet
  facet normal 0.753335 0.657637 0
    outer loop
      vertex 19.2245 12.903 0
      vertex 19.7399 12.3126 1
      vertex 19.7399 12.3126 0
    endloop
  endfacet
  facet normal 0.753335 0.657637 -0
    outer loop
      vertex 19.2245 12.903 0
      vertex 19.2245 12.903 1
      vertex 19.7399 12.3126 1
    endloop
  endfacet
  facet normal 0.603028 0.79772 0
    outer loop
      vertex 18.5804 13.3899 0
      vertex 19.2245 12.903 1
      vertex 19.2245 12.903 0
    endloop
  endfacet
  facet normal 0.603028 0.79772 -0
    outer loop
      vertex 18.5804 13.3899 0
      vertex 18.5804 13.3899 1
      vertex 19.2245 12.903 1
    endloop
  endfacet
  facet normal 0.418585 0.908178 0
    outer loop
      vertex 17.8258 13.7377 0
      vertex 18.5804 13.3899 1
      vertex 18.5804 13.3899 0
    endloop
  endfacet
  facet normal 0.418585 0.908178 -0
    outer loop
      vertex 17.8258 13.7377 0
      vertex 17.8258 13.7377 1
      vertex 18.5804 13.3899 1
    endloop
  endfacet
  facet normal 0.234542 0.972106 0
    outer loop
      vertex 16.9608 13.9464 0
      vertex 17.8258 13.7377 1
      vertex 17.8258 13.7377 0
    endloop
  endfacet
  facet normal 0.234542 0.972106 -0
    outer loop
      vertex 16.9608 13.9464 0
      vertex 16.9608 13.9464 1
      vertex 17.8258 13.7377 1
    endloop
  endfacet
  facet normal 0.0711816 0.997463 0
    outer loop
      vertex 15.9855 14.016 0
      vertex 16.9608 13.9464 1
      vertex 16.9608 13.9464 0
    endloop
  endfacet
  facet normal 0.0711816 0.997463 -0
    outer loop
      vertex 15.9855 14.016 0
      vertex 15.9855 14.016 1
      vertex 16.9608 13.9464 1
    endloop
  endfacet
  facet normal -0.0659826 0.997821 0
    outer loop
      vertex 15.0842 13.9564 0
      vertex 15.9855 14.016 1
      vertex 15.9855 14.016 0
    endloop
  endfacet
  facet normal -0.0659826 0.997821 0
    outer loop
      vertex 15.0842 13.9564 0
      vertex 15.0842 13.9564 1
      vertex 15.9855 14.016 1
    endloop
  endfacet
  facet normal -0.212213 0.977223 0
    outer loop
      vertex 14.2613 13.7777 0
      vertex 15.0842 13.9564 1
      vertex 15.0842 13.9564 0
    endloop
  endfacet
  facet normal -0.212213 0.977223 0
    outer loop
      vertex 14.2613 13.7777 0
      vertex 14.2613 13.7777 1
      vertex 15.0842 13.9564 1
    endloop
  endfacet
  facet normal -0.371348 0.928494 0
    outer loop
      vertex 13.5167 13.4799 0
      vertex 14.2613 13.7777 1
      vertex 14.2613 13.7777 0
    endloop
  endfacet
  facet normal -0.371348 0.928494 0
    outer loop
      vertex 13.5167 13.4799 0
      vertex 13.5167 13.4799 1
      vertex 14.2613 13.7777 1
    endloop
  endfacet
  facet normal -0.530479 0.847698 0
    outer loop
      vertex 12.8505 13.063 0
      vertex 13.5167 13.4799 1
      vertex 13.5167 13.4799 0
    endloop
  endfacet
  facet normal -0.530479 0.847698 0
    outer loop
      vertex 12.8505 13.063 0
      vertex 12.8505 13.063 1
      vertex 13.5167 13.4799 1
    endloop
  endfacet
  facet normal -0.700877 0.713282 0
    outer loop
      vertex 12.287 12.5093 0
      vertex 12.8505 13.063 1
      vertex 12.8505 13.063 0
    endloop
  endfacet
  facet normal -0.700877 0.713282 0
    outer loop
      vertex 12.287 12.5093 0
      vertex 12.287 12.5093 1
      vertex 12.8505 13.063 1
    endloop
  endfacet
  facet normal -0.851258 0.524748 0
    outer loop
      vertex 11.8505 11.8012 0
      vertex 12.287 12.5093 1
      vertex 12.287 12.5093 0
    endloop
  endfacet
  facet normal -0.851258 0.524748 0
    outer loop
      vertex 11.8505 11.8012 0
      vertex 11.8505 11.8012 1
      vertex 12.287 12.5093 1
    endloop
  endfacet
  facet normal -0.941222 0.337788 0
    outer loop
      vertex 11.541 10.9388 0
      vertex 11.8505 11.8012 1
      vertex 11.8505 11.8012 0
    endloop
  endfacet
  facet normal -0.941222 0.337788 0
    outer loop
      vertex 11.541 10.9388 0
      vertex 11.541 10.9388 1
      vertex 11.8505 11.8012 1
    endloop
  endfacet
  facet normal -0.984272 0.176662 0
    outer loop
      vertex 11.3585 9.922 0
      vertex 11.541 10.9388 1
      vertex 11.541 10.9388 0
    endloop
  endfacet
  facet normal -0.984272 0.176662 0
    outer loop
      vertex 11.3585 9.922 0
      vertex 11.3585 9.922 1
      vertex 11.541 10.9388 1
    endloop
  endfacet
  facet normal -0.0965432 -0.995329 0
    outer loop
      vertex 14.0185 9.66399 0
      vertex 11.3585 9.922 1
      vertex 11.3585 9.922 0
    endloop
  endfacet
  facet normal -0.0965432 -0.995329 0
    outer loop
      vertex 14.0185 9.66399 0
      vertex 14.0185 9.66399 1
      vertex 11.3585 9.922 1
    endloop
  endfacet
  facet normal 0.992653 -0.120993 0
    outer loop
      vertex 14.0827 10.1907 0
      vertex 14.0185 9.66399 1
      vertex 14.0185 9.66399 0
    endloop
  endfacet
  facet normal 0.992653 -0.120993 0
    outer loop
      vertex 14.0827 10.1907 0
      vertex 14.0827 10.1907 1
      vertex 14.0185 9.66399 1
    endloop
  endfacet
  facet normal 0.967643 -0.252325 0
    outer loop
      vertex 14.199 10.6367 0
      vertex 14.0827 10.1907 1
      vertex 14.0827 10.1907 0
    endloop
  endfacet
  facet normal 0.967643 -0.252325 0
    outer loop
      vertex 14.199 10.6367 0
      vertex 14.199 10.6367 1
      vertex 14.0827 10.1907 1
    endloop
  endfacet
  facet normal 0.907952 -0.419074 0
    outer loop
      vertex 14.3677 11.0022 0
      vertex 14.199 10.6367 1
      vertex 14.199 10.6367 0
    endloop
  endfacet
  facet normal 0.907952 -0.419074 0
    outer loop
      vertex 14.3677 11.0022 0
      vertex 14.3677 11.0022 1
      vertex 14.199 10.6367 1
    endloop
  endfacet
  facet normal 0.790308 -0.61271 0
    outer loop
      vertex 14.5885 11.287 0
      vertex 14.3677 11.0022 1
      vertex 14.3677 11.0022 0
    endloop
  endfacet
  facet normal 0.790308 -0.61271 0
    outer loop
      vertex 14.5885 11.287 0
      vertex 14.5885 11.287 1
      vertex 14.3677 11.0022 1
    endloop
  endfacet
  facet normal 0.623237 -0.782033 0
    outer loop
      vertex 14.8569 11.5009 0
      vertex 14.5885 11.287 1
      vertex 14.5885 11.287 0
    endloop
  endfacet
  facet normal 0.623237 -0.782033 0
    outer loop
      vertex 14.8569 11.5009 0
      vertex 14.8569 11.5009 1
      vertex 14.5885 11.287 1
    endloop
  endfacet
  facet normal 0.440855 -0.897578 0
    outer loop
      vertex 15.168 11.6537 0
      vertex 14.8569 11.5009 1
      vertex 14.8569 11.5009 0
    endloop
  endfacet
  facet normal 0.440855 -0.897578 0
    outer loop
      vertex 15.168 11.6537 0
      vertex 15.168 11.6537 1
      vertex 14.8569 11.5009 1
    endloop
  endfacet
  facet normal 0.250829 -0.968031 0
    outer loop
      vertex 15.5219 11.7454 0
      vertex 15.168 11.6537 1
      vertex 15.168 11.6537 0
    endloop
  endfacet
  facet normal 0.250829 -0.968031 0
    outer loop
      vertex 15.5219 11.7454 0
      vertex 15.5219 11.7454 1
      vertex 15.168 11.6537 1
    endloop
  endfacet
  facet normal 0.0769272 -0.997037 0
    outer loop
      vertex 15.9185 11.776 0
      vertex 15.5219 11.7454 1
      vertex 15.5219 11.7454 0
    endloop
  endfacet
  facet normal 0.0769272 -0.997037 0
    outer loop
      vertex 15.9185 11.776 0
      vertex 15.9185 11.776 1
      vertex 15.5219 11.7454 1
    endloop
  endfacet
  facet normal -0.0747714 -0.997201 0
    outer loop
      vertex 16.3186 11.746 0
      vertex 15.9185 11.776 1
      vertex 15.9185 11.776 0
    endloop
  endfacet
  facet normal -0.0747714 -0.997201 0
    outer loop
      vertex 16.3186 11.746 0
      vertex 16.3186 11.746 1
      vertex 15.9185 11.776 1
    endloop
  endfacet
  facet normal -0.246268 -0.969202 0
    outer loop
      vertex 16.6728 11.656 0
      vertex 16.3186 11.746 1
      vertex 16.3186 11.746 0
    endloop
  endfacet
  facet normal -0.246268 -0.969202 0
    outer loop
      vertex 16.6728 11.656 0
      vertex 16.6728 11.656 1
      vertex 16.3186 11.746 1
    endloop
  endfacet
  facet normal -0.437504 -0.899216 0
    outer loop
      vertex 16.9811 11.506 0
      vertex 16.6728 11.656 1
      vertex 16.6728 11.656 0
    endloop
  endfacet
  facet normal -0.437504 -0.899216 0
    outer loop
      vertex 16.9811 11.506 0
      vertex 16.9811 11.506 1
      vertex 16.6728 11.656 1
    endloop
  endfacet
  facet normal -0.62484 -0.780753 0
    outer loop
      vertex 17.2435 11.296 0
      vertex 16.9811 11.506 1
      vertex 16.9811 11.506 0
    endloop
  endfacet
  facet normal -0.62484 -0.780753 0
    outer loop
      vertex 17.2435 11.296 0
      vertex 17.2435 11.296 1
      vertex 16.9811 11.506 1
    endloop
  endfacet
  facet normal -0.784656 -0.619931 0
    outer loop
      vertex 17.4535 11.0302 0
      vertex 17.2435 11.296 1
      vertex 17.2435 11.296 0
    endloop
  endfacet
  facet normal -0.784656 -0.619931 0
    outer loop
      vertex 17.4535 11.0302 0
      vertex 17.4535 11.0302 1
      vertex 17.2435 11.296 1
    endloop
  endfacet
  facet normal -0.904172 -0.427168 0
    outer loop
      vertex 17.6035 10.7127 0
      vertex 17.4535 11.0302 1
      vertex 17.4535 11.0302 0
    endloop
  endfacet
  facet normal -0.904172 -0.427168 0
    outer loop
      vertex 17.6035 10.7127 0
      vertex 17.6035 10.7127 1
      vertex 17.4535 11.0302 1
    endloop
  endfacet
  facet normal -0.97152 -0.236956 0
    outer loop
      vertex 17.6935 10.3437 0
      vertex 17.6035 10.7127 1
      vertex 17.6035 10.7127 0
    endloop
  endfacet
  facet normal -0.97152 -0.236956 0
    outer loop
      vertex 17.6935 10.3437 0
      vertex 17.6935 10.3437 1
      vertex 17.6035 10.7127 1
    endloop
  endfacet
  facet normal -0.997467 -0.0711274 0
    outer loop
      vertex 17.7235 9.92299 0
      vertex 17.6935 10.3437 1
      vertex 17.6935 10.3437 0
    endloop
  endfacet
  facet normal -0.997467 -0.0711274 0
    outer loop
      vertex 17.7235 9.92299 0
      vertex 17.7235 9.92299 1
      vertex 17.6935 10.3437 1
    endloop
  endfacet
  facet normal -0.996415 0.0845962 0
    outer loop
      vertex 17.6891 9.51781 0
      vertex 17.7235 9.92299 1
      vertex 17.7235 9.92299 0
    endloop
  endfacet
  facet normal -0.996415 0.0845962 0
    outer loop
      vertex 17.6891 9.51781 0
      vertex 17.6891 9.51781 1
      vertex 17.7235 9.92299 1
    endloop
  endfacet
  facet normal -0.96935 0.245685 0
    outer loop
      vertex 17.5858 9.11024 0
      vertex 17.6891 9.51781 1
      vertex 17.6891 9.51781 0
    endloop
  endfacet
  facet normal -0.96935 0.245685 0
    outer loop
      vertex 17.5858 9.11024 0
      vertex 17.5858 9.11024 1
      vertex 17.6891 9.51781 1
    endloop
  endfacet
  facet normal -0.921962 0.387281 0
    outer loop
      vertex 17.4136 8.7003 0
      vertex 17.5858 9.11024 1
      vertex 17.5858 9.11024 0
    endloop
  endfacet
  facet normal -0.921962 0.387281 0
    outer loop
      vertex 17.4136 8.7003 0
      vertex 17.4136 8.7003 1
      vertex 17.5858 9.11024 1
    endloop
  endfacet
  facet normal -0.863245 0.504786 0
    outer loop
      vertex 17.1725 8.28799 0
      vertex 17.4136 8.7003 1
      vertex 17.4136 8.7003 0
    endloop
  endfacet
  facet normal -0.863245 0.504786 0
    outer loop
      vertex 17.1725 8.28799 0
      vertex 17.1725 8.28799 1
      vertex 17.4136 8.7003 1
    endloop
  endfacet
  facet normal -0.783406 0.62151 0
    outer loop
      vertex 16.8812 7.92081 0
      vertex 17.1725 8.28799 1
      vertex 17.1725 8.28799 0
    endloop
  endfacet
  facet normal -0.783406 0.62151 0
    outer loop
      vertex 16.8812 7.92081 0
      vertex 16.8812 7.92081 1
      vertex 17.1725 8.28799 1
    endloop
  endfacet
  facet normal -0.733355 0.679846 0
    outer loop
      vertex 16.4153 7.41824 0
      vertex 16.8812 7.92081 1
      vertex 16.8812 7.92081 0
    endloop
  endfacet
  facet normal -0.733355 0.679846 0
    outer loop
      vertex 16.4153 7.41824 0
      vertex 16.4153 7.41824 1
      vertex 16.8812 7.92081 1
    endloop
  endfacet
  facet normal -0.705634 0.708576 0
    outer loop
      vertex 15.7747 6.7803 0
      vertex 16.4153 7.41824 1
      vertex 16.4153 7.41824 0
    endloop
  endfacet
  facet normal -0.705634 0.708576 0
    outer loop
      vertex 15.7747 6.7803 0
      vertex 15.7747 6.7803 1
      vertex 16.4153 7.41824 1
    endloop
  endfacet
  facet normal -0.688221 0.725501 0
    outer loop
      vertex 14.9595 6.00699 0
      vertex 15.7747 6.7803 1
      vertex 15.7747 6.7803 0
    endloop
  endfacet
  facet normal -0.688221 0.725501 0
    outer loop
      vertex 14.9595 6.00699 0
      vertex 14.9595 6.00699 1
      vertex 15.7747 6.7803 1
    endloop
  endfacet
  facet normal -0.693404 0.720549 0
    outer loop
      vertex 13.9312 5.01743 0
      vertex 14.9595 6.00699 1
      vertex 14.9595 6.00699 0
    endloop
  endfacet
  facet normal -0.693404 0.720549 0
    outer loop
      vertex 13.9312 5.01743 0
      vertex 13.9312 5.01743 1
      vertex 14.9595 6.00699 1
    endloop
  endfacet
  facet normal -0.724655 0.689112 0
    outer loop
      vertex 13.088 4.13074 0
      vertex 13.9312 5.01743 1
      vertex 13.9312 5.01743 0
    endloop
  endfacet
  facet normal -0.724655 0.689112 0
    outer loop
      vertex 13.088 4.13074 0
      vertex 13.088 4.13074 1
      vertex 13.9312 5.01743 1
    endloop
  endfacet
  facet normal -0.765998 0.642843 0
    outer loop
      vertex 12.4302 3.34692 0
      vertex 13.088 4.13074 1
      vertex 13.088 4.13074 0
    endloop
  endfacet
  facet normal -0.765998 0.642843 0
    outer loop
      vertex 12.4302 3.34692 0
      vertex 12.4302 3.34692 1
      vertex 13.088 4.13074 1
    endloop
  endfacet
  facet normal -0.821465 0.570259 0
    outer loop
      vertex 11.9575 2.66599 0
      vertex 12.4302 3.34692 1
      vertex 12.4302 3.34692 0
    endloop
  endfacet
  facet normal -0.821465 0.570259 0
    outer loop
      vertex 11.9575 2.66599 0
      vertex 11.9575 2.66599 1
      vertex 12.4302 3.34692 1
    endloop
  endfacet
  facet normal -0.881588 0.47202 0
    outer loop
      vertex 11.6155 2.02724 0
      vertex 11.9575 2.66599 1
      vertex 11.9575 2.66599 0
    endloop
  endfacet
  facet normal -0.881588 0.47202 0
    outer loop
      vertex 11.6155 2.02724 0
      vertex 11.6155 2.02724 1
      vertex 11.9575 2.66599 1
    endloop
  endfacet
  facet normal -0.926959 0.375162 0
    outer loop
      vertex 11.3495 1.37 0
      vertex 11.6155 2.02724 1
      vertex 11.6155 2.02724 0
    endloop
  endfacet
  facet normal -0.926959 0.375162 0
    outer loop
      vertex 11.3495 1.37 0
      vertex 11.3495 1.37 1
      vertex 11.6155 2.02724 1
    endloop
  endfacet
  facet normal -0.962672 0.270671 0
    outer loop
      vertex 11.1595 0.694244 0
      vertex 11.3495 1.37 1
      vertex 11.3495 1.37 0
    endloop
  endfacet
  facet normal -0.962672 0.270671 0
    outer loop
      vertex 11.1595 0.694244 0
      vertex 11.1595 0.694244 1
      vertex 11.3495 1.37 1
    endloop
  endfacet
  facet normal -0.986785 0.162037 0
    outer loop
      vertex 11.0455 0 0
      vertex 11.1595 0.694244 1
      vertex 11.1595 0.694244 0
    endloop
  endfacet
  facet normal -0.986785 0.162037 0
    outer loop
      vertex 11.0455 0 0
      vertex 11.0455 0 1
      vertex 11.1595 0.694244 1
    endloop
  endfacet
  facet normal 0 -1 0
    outer loop
      vertex 20.4025 0 0
      vertex 11.0455 0 1
      vertex 11.0455 0 0
    endloop
  endfacet
  facet normal 0 -1 0
    outer loop
      vertex 20.4025 0 0
      vertex 20.4025 0 1
      vertex 11.0455 0 1
    endloop
  endfacet
  facet normal 1 0 0
    outer loop
      vertex 20.4025 2.49599 0
      vertex 20.4025 0 1
      vertex 20.4025 0 0
    endloop
  endfacet
  facet normal 1 0 -0
    outer loop
      vertex 20.4025 2.49599 0
      vertex 20.4025 2.49599 1
      vertex 20.4025 0 1
    endloop
  endfacet
endsolid OpenSCAD_Model
