%TF.GenerationSoftware,KiCad,Pcbnew,8.0.2-8.0.2-0~ubuntu24.04.1*%
%TF.CreationDate,2024-05-16T14:50:04-03:00*%
%TF.ProjectId,arduvga,61726475-7667-4612-9e6b-696361645f70,1*%
%TF.SameCoordinates,Original*%
%TF.FileFunction,Copper,L1,Top*%
%TF.FilePolarity,Positive*%
%FSLAX46Y46*%
G04 Gerber Fmt 4.6, Leading zero omitted, Abs format (unit mm)*
G04 Created by KiCad (PCBNEW 8.0.2-8.0.2-0~ubuntu24.04.1) date 2024-05-16 14:50:04*
%MOMM*%
%LPD*%
G01*
G04 APERTURE LIST*
%TA.AperFunction,ComponentPad*%
%ADD10C,4.000000*%
%TD*%
%TA.AperFunction,ComponentPad*%
%ADD11R,1.600000X1.600000*%
%TD*%
%TA.AperFunction,ComponentPad*%
%ADD12C,1.600000*%
%TD*%
%TA.AperFunction,ComponentPad*%
%ADD13O,1.600000X1.600000*%
%TD*%
%TA.AperFunction,ComponentPad*%
%ADD14R,1.700000X1.700000*%
%TD*%
%TA.AperFunction,ComponentPad*%
%ADD15O,1.700000X1.700000*%
%TD*%
%TA.AperFunction,ComponentPad*%
%ADD16O,1.600000X3.000000*%
%TD*%
%TA.AperFunction,ViaPad*%
%ADD17C,1.500000*%
%TD*%
%TA.AperFunction,Conductor*%
%ADD18C,0.500000*%
%TD*%
%TA.AperFunction,Conductor*%
%ADD19C,1.250000*%
%TD*%
G04 APERTURE END LIST*
D10*
%TO.P,J5,0*%
%TO.N,GND*%
X175330000Y-110416000D03*
X175330000Y-85416000D03*
D11*
%TO.P,J5,1*%
%TO.N,Net-(J5-Pad1)*%
X173280000Y-93601000D03*
D12*
%TO.P,J5,2*%
%TO.N,Net-(J5-Pad2)*%
X173280000Y-95891000D03*
%TO.P,J5,3*%
%TO.N,Net-(J5-Pad3)*%
X173280000Y-98181000D03*
%TO.P,J5,4*%
%TO.N,unconnected-(J5-Pad4)*%
X173280000Y-100471000D03*
%TO.P,J5,5*%
%TO.N,GND*%
X173280000Y-102761000D03*
%TO.P,J5,6*%
X175260000Y-92456000D03*
%TO.P,J5,7*%
X175260000Y-94746000D03*
%TO.P,J5,8*%
X175260000Y-97036000D03*
%TO.P,J5,9*%
%TO.N,unconnected-(J5-Pad9)*%
X175260000Y-99326000D03*
%TO.P,J5,10*%
%TO.N,GND*%
X175260000Y-101616000D03*
%TO.P,J5,11*%
%TO.N,unconnected-(J5-Pad11)*%
X177240000Y-93601000D03*
%TO.P,J5,12*%
%TO.N,unconnected-(J5-Pad12)*%
X177240000Y-95891000D03*
%TO.P,J5,13*%
%TO.N,Net-(J5-Pad13)*%
X177240000Y-98181000D03*
%TO.P,J5,14*%
%TO.N,Net-(J5-Pad14)*%
X177240000Y-100471000D03*
%TO.P,J5,15*%
%TO.N,unconnected-(J5-Pad15)*%
X177240000Y-102761000D03*
%TD*%
%TO.P,R5,1*%
%TO.N,Net-(A1-A2)*%
X145288000Y-113284000D03*
D13*
%TO.P,R5,2*%
%TO.N,GND*%
X137668000Y-113284000D03*
%TD*%
D12*
%TO.P,R6,1*%
%TO.N,Net-(J3-Pin_3)*%
X145288000Y-103632000D03*
D13*
%TO.P,R6,2*%
%TO.N,GND*%
X137668000Y-103632000D03*
%TD*%
D14*
%TO.P,J1,1,Pin_1*%
%TO.N,+5V*%
X150368000Y-117856000D03*
D15*
%TO.P,J1,2,Pin_2*%
%TO.N,Net-(A1-A1)*%
X147828000Y-117856000D03*
%TO.P,J1,3,Pin_3*%
%TO.N,Net-(A1-A2)*%
X145288000Y-117856000D03*
%TO.P,J1,4,Pin_4*%
%TO.N,GND*%
X142748000Y-117856000D03*
%TD*%
D12*
%TO.P,R7,1*%
%TO.N,Net-(J5-Pad3)*%
X161544000Y-98044000D03*
D13*
%TO.P,R7,2*%
%TO.N,Net-(A1-D5)*%
X161544000Y-90424000D03*
%TD*%
D14*
%TO.P,J3,1,Pin_1*%
%TO.N,+5V*%
X150368000Y-108712000D03*
D15*
%TO.P,J3,2,Pin_2*%
%TO.N,Net-(A1-A3)*%
X147828000Y-108712000D03*
%TO.P,J3,3,Pin_3*%
%TO.N,Net-(J3-Pin_3)*%
X145288000Y-108712000D03*
%TO.P,J3,4,Pin_4*%
%TO.N,GND*%
X142748000Y-108712000D03*
%TD*%
D12*
%TO.P,R2,1*%
%TO.N,Net-(J5-Pad1)*%
X157988000Y-93472000D03*
D13*
%TO.P,R2,2*%
%TO.N,Net-(A1-D6)*%
X157988000Y-85852000D03*
%TD*%
D12*
%TO.P,R3,1*%
%TO.N,Net-(J5-Pad2)*%
X154432000Y-95504000D03*
D13*
%TO.P,R3,2*%
%TO.N,Net-(A1-D7)*%
X154432000Y-87884000D03*
%TD*%
D12*
%TO.P,R4,1*%
%TO.N,Net-(J5-Pad14)*%
X150876000Y-101600000D03*
D13*
%TO.P,R4,2*%
%TO.N,Net-(A1-D9)*%
X150876000Y-93980000D03*
%TD*%
D12*
%TO.P,R1,1*%
%TO.N,Net-(J5-Pad13)*%
X176022000Y-78740000D03*
D13*
%TO.P,R1,2*%
%TO.N,Net-(A1-D3)*%
X168402000Y-78740000D03*
%TD*%
D16*
%TO.P,A1,1,NC*%
%TO.N,unconnected-(A1-NC-Pad1)*%
X140208000Y-121920000D03*
%TO.P,A1,2,IOREF*%
%TO.N,unconnected-(A1-IOREF-Pad2)*%
X142748000Y-121920000D03*
%TO.P,A1,3,~{RESET}*%
%TO.N,unconnected-(A1-~{RESET}-Pad3)*%
X145288000Y-121920000D03*
%TO.P,A1,4,3V3*%
%TO.N,unconnected-(A1-3V3-Pad4)*%
X147828000Y-121920000D03*
%TO.P,A1,5,+5V*%
%TO.N,+5V*%
X150368000Y-121920000D03*
%TO.P,A1,6,GND*%
%TO.N,GND*%
X152908000Y-121920000D03*
%TO.P,A1,7,GND*%
X155448000Y-121920000D03*
%TO.P,A1,8,VIN*%
%TO.N,unconnected-(A1-VIN-Pad8)*%
X157988000Y-121920000D03*
%TO.P,A1,9,A0*%
%TO.N,unconnected-(A1-A0-Pad9)*%
X163068000Y-121920000D03*
%TO.P,A1,10,A1*%
%TO.N,Net-(A1-A1)*%
X165608000Y-121920000D03*
%TO.P,A1,11,A2*%
%TO.N,Net-(A1-A2)*%
X168148000Y-121920000D03*
%TO.P,A1,12,A3*%
%TO.N,Net-(A1-A3)*%
X170688000Y-121920000D03*
%TO.P,A1,13,SDA/A4*%
%TO.N,Net-(J3-Pin_3)*%
X173228000Y-121920000D03*
%TO.P,A1,14,SCL/A5*%
%TO.N,unconnected-(A1-SCL{slash}A5-Pad14)*%
X175768000Y-121920000D03*
%TO.P,A1,15,D0/RX*%
%TO.N,unconnected-(A1-D0{slash}RX-Pad15)*%
X175768000Y-73660000D03*
%TO.P,A1,16,D1/TX*%
%TO.N,unconnected-(A1-D1{slash}TX-Pad16)*%
X173228000Y-73660000D03*
%TO.P,A1,17,D2*%
%TO.N,unconnected-(A1-D2-Pad17)*%
X170688000Y-73660000D03*
%TO.P,A1,18,D3*%
%TO.N,Net-(A1-D3)*%
X168148000Y-73660000D03*
%TO.P,A1,19,D4*%
%TO.N,unconnected-(A1-D4-Pad19)*%
X165608000Y-73660000D03*
%TO.P,A1,20,D5*%
%TO.N,Net-(A1-D5)*%
X163068000Y-73660000D03*
%TO.P,A1,21,D6*%
%TO.N,Net-(A1-D6)*%
X160528000Y-73660000D03*
%TO.P,A1,22,D7*%
%TO.N,Net-(A1-D7)*%
X157988000Y-73660000D03*
%TO.P,A1,23,D8*%
%TO.N,unconnected-(A1-D8-Pad23)*%
X153928000Y-73660000D03*
%TO.P,A1,24,D9*%
%TO.N,Net-(A1-D9)*%
X151388000Y-73660000D03*
%TO.P,A1,25,D10*%
%TO.N,unconnected-(A1-D10-Pad25)*%
X148848000Y-73660000D03*
%TO.P,A1,26,D11*%
%TO.N,unconnected-(A1-D11-Pad26)*%
X146308000Y-73660000D03*
%TO.P,A1,27,D12*%
%TO.N,unconnected-(A1-D12-Pad27)*%
X143768000Y-73660000D03*
%TO.P,A1,28,D13*%
%TO.N,unconnected-(A1-D13-Pad28)*%
X141228000Y-73660000D03*
%TO.P,A1,29,GND*%
%TO.N,GND*%
X138688000Y-73660000D03*
%TO.P,A1,30,AREF*%
%TO.N,unconnected-(A1-AREF-Pad30)*%
X136148000Y-73660000D03*
%TO.P,A1,31,SDA/A4*%
%TO.N,unconnected-(A1-SDA{slash}A4-Pad31)*%
X133608000Y-73660000D03*
%TO.P,A1,32,SCL/A5*%
%TO.N,unconnected-(A1-SCL{slash}A5-Pad32)*%
X131068000Y-73660000D03*
%TD*%
D17*
%TO.N,+5V*%
X156464002Y-117856000D03*
X156464000Y-108712000D03*
%TD*%
D18*
%TO.N,+5V*%
X156464000Y-108712000D02*
X156464000Y-117855998D01*
D19*
X156464000Y-117855998D02*
X156464002Y-117856000D01*
%TD*%
M02*
