%TF.GenerationSoftware,KiCad,Pcbnew,8.0.2-8.0.2-0~ubuntu24.04.1*%
%TF.CreationDate,2024-05-16T14:50:04-03:00*%
%TF.ProjectId,arduvga,61726475-7667-4612-9e6b-696361645f70,1*%
%TF.SameCoordinates,Original*%
%TF.FileFunction,Copper,L2,Bot*%
%TF.FilePolarity,Positive*%
%FSLAX46Y46*%
G04 Gerber Fmt 4.6, Leading zero omitted, Abs format (unit mm)*
G04 Created by KiCad (PCBNEW 8.0.2-8.0.2-0~ubuntu24.04.1) date 2024-05-16 14:50:04*
%MOMM*%
%LPD*%
G01*
G04 APERTURE LIST*
%TA.AperFunction,ComponentPad*%
%ADD10C,4.000000*%
%TD*%
%TA.AperFunction,ComponentPad*%
%ADD11R,1.600000X1.600000*%
%TD*%
%TA.AperFunction,ComponentPad*%
%ADD12C,1.600000*%
%TD*%
%TA.AperFunction,ComponentPad*%
%ADD13O,1.600000X1.600000*%
%TD*%
%TA.AperFunction,ComponentPad*%
%ADD14R,1.700000X1.700000*%
%TD*%
%TA.AperFunction,ComponentPad*%
%ADD15O,1.700000X1.700000*%
%TD*%
%TA.AperFunction,ComponentPad*%
%ADD16O,1.600000X3.000000*%
%TD*%
%TA.AperFunction,ViaPad*%
%ADD17C,1.500000*%
%TD*%
%TA.AperFunction,Conductor*%
%ADD18C,1.250000*%
%TD*%
%TA.AperFunction,Conductor*%
%ADD19C,1.000000*%
%TD*%
%TA.AperFunction,Conductor*%
%ADD20C,0.500000*%
%TD*%
%TA.AperFunction,Conductor*%
%ADD21C,0.250000*%
%TD*%
G04 APERTURE END LIST*
D10*
%TO.P,J5,0*%
%TO.N,GND*%
X175330000Y-110416000D03*
X175330000Y-85416000D03*
D11*
%TO.P,J5,1*%
%TO.N,Net-(J5-Pad1)*%
X173280000Y-93601000D03*
D12*
%TO.P,J5,2*%
%TO.N,Net-(J5-Pad2)*%
X173280000Y-95891000D03*
%TO.P,J5,3*%
%TO.N,Net-(J5-Pad3)*%
X173280000Y-98181000D03*
%TO.P,J5,4*%
%TO.N,unconnected-(J5-Pad4)*%
X173280000Y-100471000D03*
%TO.P,J5,5*%
%TO.N,GND*%
X173280000Y-102761000D03*
%TO.P,J5,6*%
X175260000Y-92456000D03*
%TO.P,J5,7*%
X175260000Y-94746000D03*
%TO.P,J5,8*%
X175260000Y-97036000D03*
%TO.P,J5,9*%
%TO.N,unconnected-(J5-Pad9)*%
X175260000Y-99326000D03*
%TO.P,J5,10*%
%TO.N,GND*%
X175260000Y-101616000D03*
%TO.P,J5,11*%
%TO.N,unconnected-(J5-Pad11)*%
X177240000Y-93601000D03*
%TO.P,J5,12*%
%TO.N,unconnected-(J5-Pad12)*%
X177240000Y-95891000D03*
%TO.P,J5,13*%
%TO.N,Net-(J5-Pad13)*%
X177240000Y-98181000D03*
%TO.P,J5,14*%
%TO.N,Net-(J5-Pad14)*%
X177240000Y-100471000D03*
%TO.P,J5,15*%
%TO.N,unconnected-(J5-Pad15)*%
X177240000Y-102761000D03*
%TD*%
%TO.P,R5,1*%
%TO.N,Net-(A1-A2)*%
X145288000Y-113284000D03*
D13*
%TO.P,R5,2*%
%TO.N,GND*%
X137668000Y-113284000D03*
%TD*%
D12*
%TO.P,R6,1*%
%TO.N,Net-(J3-Pin_3)*%
X145288000Y-103632000D03*
D13*
%TO.P,R6,2*%
%TO.N,GND*%
X137668000Y-103632000D03*
%TD*%
D14*
%TO.P,J1,1,Pin_1*%
%TO.N,+5V*%
X150368000Y-117856000D03*
D15*
%TO.P,J1,2,Pin_2*%
%TO.N,Net-(A1-A1)*%
X147828000Y-117856000D03*
%TO.P,J1,3,Pin_3*%
%TO.N,Net-(A1-A2)*%
X145288000Y-117856000D03*
%TO.P,J1,4,Pin_4*%
%TO.N,GND*%
X142748000Y-117856000D03*
%TD*%
D12*
%TO.P,R7,1*%
%TO.N,Net-(J5-Pad3)*%
X161544000Y-98044000D03*
D13*
%TO.P,R7,2*%
%TO.N,Net-(A1-D5)*%
X161544000Y-90424000D03*
%TD*%
D14*
%TO.P,J3,1,Pin_1*%
%TO.N,+5V*%
X150368000Y-108712000D03*
D15*
%TO.P,J3,2,Pin_2*%
%TO.N,Net-(A1-A3)*%
X147828000Y-108712000D03*
%TO.P,J3,3,Pin_3*%
%TO.N,Net-(J3-Pin_3)*%
X145288000Y-108712000D03*
%TO.P,J3,4,Pin_4*%
%TO.N,GND*%
X142748000Y-108712000D03*
%TD*%
D12*
%TO.P,R2,1*%
%TO.N,Net-(J5-Pad1)*%
X157988000Y-93472000D03*
D13*
%TO.P,R2,2*%
%TO.N,Net-(A1-D6)*%
X157988000Y-85852000D03*
%TD*%
D12*
%TO.P,R3,1*%
%TO.N,Net-(J5-Pad2)*%
X154432000Y-95504000D03*
D13*
%TO.P,R3,2*%
%TO.N,Net-(A1-D7)*%
X154432000Y-87884000D03*
%TD*%
D12*
%TO.P,R4,1*%
%TO.N,Net-(J5-Pad14)*%
X150876000Y-101600000D03*
D13*
%TO.P,R4,2*%
%TO.N,Net-(A1-D9)*%
X150876000Y-93980000D03*
%TD*%
D12*
%TO.P,R1,1*%
%TO.N,Net-(J5-Pad13)*%
X176022000Y-78740000D03*
D13*
%TO.P,R1,2*%
%TO.N,Net-(A1-D3)*%
X168402000Y-78740000D03*
%TD*%
D16*
%TO.P,A1,1,NC*%
%TO.N,unconnected-(A1-NC-Pad1)*%
X140208000Y-121920000D03*
%TO.P,A1,2,IOREF*%
%TO.N,unconnected-(A1-IOREF-Pad2)*%
X142748000Y-121920000D03*
%TO.P,A1,3,~{RESET}*%
%TO.N,unconnected-(A1-~{RESET}-Pad3)*%
X145288000Y-121920000D03*
%TO.P,A1,4,3V3*%
%TO.N,unconnected-(A1-3V3-Pad4)*%
X147828000Y-121920000D03*
%TO.P,A1,5,+5V*%
%TO.N,+5V*%
X150368000Y-121920000D03*
%TO.P,A1,6,GND*%
%TO.N,GND*%
X152908000Y-121920000D03*
%TO.P,A1,7,GND*%
X155448000Y-121920000D03*
%TO.P,A1,8,VIN*%
%TO.N,unconnected-(A1-VIN-Pad8)*%
X157988000Y-121920000D03*
%TO.P,A1,9,A0*%
%TO.N,unconnected-(A1-A0-Pad9)*%
X163068000Y-121920000D03*
%TO.P,A1,10,A1*%
%TO.N,Net-(A1-A1)*%
X165608000Y-121920000D03*
%TO.P,A1,11,A2*%
%TO.N,Net-(A1-A2)*%
X168148000Y-121920000D03*
%TO.P,A1,12,A3*%
%TO.N,Net-(A1-A3)*%
X170688000Y-121920000D03*
%TO.P,A1,13,SDA/A4*%
%TO.N,Net-(J3-Pin_3)*%
X173228000Y-121920000D03*
%TO.P,A1,14,SCL/A5*%
%TO.N,unconnected-(A1-SCL{slash}A5-Pad14)*%
X175768000Y-121920000D03*
%TO.P,A1,15,D0/RX*%
%TO.N,unconnected-(A1-D0{slash}RX-Pad15)*%
X175768000Y-73660000D03*
%TO.P,A1,16,D1/TX*%
%TO.N,unconnected-(A1-D1{slash}TX-Pad16)*%
X173228000Y-73660000D03*
%TO.P,A1,17,D2*%
%TO.N,unconnected-(A1-D2-Pad17)*%
X170688000Y-73660000D03*
%TO.P,A1,18,D3*%
%TO.N,Net-(A1-D3)*%
X168148000Y-73660000D03*
%TO.P,A1,19,D4*%
%TO.N,unconnected-(A1-D4-Pad19)*%
X165608000Y-73660000D03*
%TO.P,A1,20,D5*%
%TO.N,Net-(A1-D5)*%
X163068000Y-73660000D03*
%TO.P,A1,21,D6*%
%TO.N,Net-(A1-D6)*%
X160528000Y-73660000D03*
%TO.P,A1,22,D7*%
%TO.N,Net-(A1-D7)*%
X157988000Y-73660000D03*
%TO.P,A1,23,D8*%
%TO.N,unconnected-(A1-D8-Pad23)*%
X153928000Y-73660000D03*
%TO.P,A1,24,D9*%
%TO.N,Net-(A1-D9)*%
X151388000Y-73660000D03*
%TO.P,A1,25,D10*%
%TO.N,unconnected-(A1-D10-Pad25)*%
X148848000Y-73660000D03*
%TO.P,A1,26,D11*%
%TO.N,unconnected-(A1-D11-Pad26)*%
X146308000Y-73660000D03*
%TO.P,A1,27,D12*%
%TO.N,unconnected-(A1-D12-Pad27)*%
X143768000Y-73660000D03*
%TO.P,A1,28,D13*%
%TO.N,unconnected-(A1-D13-Pad28)*%
X141228000Y-73660000D03*
%TO.P,A1,29,GND*%
%TO.N,GND*%
X138688000Y-73660000D03*
%TO.P,A1,30,AREF*%
%TO.N,unconnected-(A1-AREF-Pad30)*%
X136148000Y-73660000D03*
%TO.P,A1,31,SDA/A4*%
%TO.N,unconnected-(A1-SDA{slash}A4-Pad31)*%
X133608000Y-73660000D03*
%TO.P,A1,32,SCL/A5*%
%TO.N,unconnected-(A1-SCL{slash}A5-Pad32)*%
X131068000Y-73660000D03*
%TD*%
D17*
%TO.N,+5V*%
X156464002Y-117856000D03*
X156464000Y-108712000D03*
%TD*%
D18*
%TO.N,+5V*%
X150876000Y-108712000D02*
X156464000Y-108712000D01*
X153416000Y-117856000D02*
X150368002Y-117856000D01*
X153416000Y-117856000D02*
X156464002Y-117856000D01*
X150368002Y-117856000D02*
X150368000Y-117856002D01*
X150368000Y-121920000D02*
X150368000Y-117856002D01*
D19*
%TO.N,GND*%
X175260000Y-92456000D02*
X175260000Y-97036000D01*
D20*
X174115000Y-102761000D02*
X175260000Y-101616000D01*
D21*
X173280000Y-102761000D02*
X174115000Y-102761000D01*
D19*
%TO.N,Net-(A1-A1)*%
X161290000Y-115316000D02*
X149860000Y-115316000D01*
X149860000Y-115316000D02*
X147828000Y-117348000D01*
X165608000Y-121920000D02*
X165608000Y-119634000D01*
X165608000Y-119634000D02*
X161290000Y-115316000D01*
%TO.N,Net-(A1-A2)*%
X162814000Y-113284000D02*
X145288000Y-113284000D01*
X168148000Y-121920000D02*
X168148000Y-118618000D01*
D18*
X145288000Y-113284000D02*
X145288000Y-117348000D01*
D19*
X168148000Y-118618000D02*
X162814000Y-113284000D01*
%TO.N,Net-(A1-A3)*%
X170688000Y-121920000D02*
X170688000Y-115824000D01*
X148844000Y-105664000D02*
X147828000Y-106680000D01*
X147828000Y-106680000D02*
X147828000Y-109220000D01*
X160528000Y-105664000D02*
X148844000Y-105664000D01*
X170688000Y-115824000D02*
X160528000Y-105664000D01*
D18*
%TO.N,Net-(J3-Pin_3)*%
X145288000Y-104140000D02*
X145288000Y-105156000D01*
D19*
X162052000Y-103632000D02*
X145796000Y-103632000D01*
D18*
X145288000Y-109220000D02*
X145288000Y-105156000D01*
D19*
X173228000Y-121920000D02*
X173228000Y-114808000D01*
X173228000Y-114808000D02*
X162052000Y-103632000D01*
X145796000Y-103632000D02*
X145288000Y-104140000D01*
D18*
%TO.N,Net-(A1-D3)*%
X168148000Y-73660000D02*
X168148000Y-78486000D01*
%TO.N,Net-(A1-D6)*%
X160528000Y-82804000D02*
X160528000Y-73660000D01*
X157988000Y-85344000D02*
X160528000Y-82804000D01*
%TO.N,Net-(A1-D7)*%
X157988000Y-73660000D02*
X157988000Y-81280000D01*
X154432000Y-84836000D02*
X154432000Y-87884000D01*
X157988000Y-81280000D02*
X154432000Y-84836000D01*
%TO.N,Net-(A1-D9)*%
X150876000Y-93980000D02*
X151384000Y-93472000D01*
D21*
X151384000Y-73664000D02*
X151388000Y-73660000D01*
D18*
X151384000Y-93472000D02*
X151384000Y-73664000D01*
D19*
%TO.N,Net-(J5-Pad1)*%
X157988000Y-93472000D02*
X173151000Y-93472000D01*
X173151000Y-93472000D02*
X173280000Y-93601000D01*
X158045000Y-93529000D02*
X157988000Y-93472000D01*
%TO.N,Net-(J5-Pad2)*%
X154432000Y-95504000D02*
X172893000Y-95504000D01*
X172893000Y-95504000D02*
X173280000Y-95891000D01*
X154747000Y-95819000D02*
X154432000Y-95504000D01*
D18*
%TO.N,Net-(J5-Pad13)*%
X179324000Y-79756000D02*
X179324000Y-97536000D01*
X178308000Y-78740000D02*
X179324000Y-79756000D01*
X176022000Y-78740000D02*
X178308000Y-78740000D01*
X178679000Y-98181000D02*
X177240000Y-98181000D01*
X179324000Y-97536000D02*
X178679000Y-98181000D01*
D19*
%TO.N,Net-(J5-Pad14)*%
X178703000Y-100471000D02*
X177240000Y-100471000D01*
X150876000Y-101600000D02*
X163576000Y-101600000D01*
X179832000Y-101600000D02*
X178703000Y-100471000D01*
X179832000Y-105156000D02*
X179832000Y-101600000D01*
X178308000Y-106680000D02*
X179832000Y-105156000D01*
X163576000Y-101600000D02*
X168656000Y-106680000D01*
X168656000Y-106680000D02*
X178308000Y-106680000D01*
D18*
%TO.N,Net-(A1-D5)*%
X163068000Y-88900000D02*
X161544000Y-90424000D01*
X163068000Y-73660000D02*
X163068000Y-88900000D01*
D19*
%TO.N,Net-(J5-Pad3)*%
X173143000Y-98044000D02*
X173280000Y-98181000D01*
X161609000Y-98109000D02*
X161544000Y-98044000D01*
X161544000Y-98044000D02*
X173143000Y-98044000D01*
%TD*%
%TA.AperFunction,Conductor*%
%TO.N,GND*%
G36*
X181299039Y-70631685D02*
G01*
X181344794Y-70684489D01*
X181356000Y-70736000D01*
X181356000Y-100769384D01*
X181336315Y-100836423D01*
X181283511Y-100882178D01*
X181214353Y-100892122D01*
X181150797Y-100863097D01*
X181121516Y-100825680D01*
X181115344Y-100813568D01*
X181115343Y-100813566D01*
X180976517Y-100622490D01*
X179844096Y-99490069D01*
X179810611Y-99428746D01*
X179815595Y-99359054D01*
X179844096Y-99314707D01*
X180097702Y-99061101D01*
X180563862Y-98594942D01*
X180714252Y-98387947D01*
X180830410Y-98159976D01*
X180909474Y-97916639D01*
X180949500Y-97663930D01*
X180949500Y-97408070D01*
X180949500Y-79628070D01*
X180909474Y-79375361D01*
X180905775Y-79363976D01*
X180830410Y-79132024D01*
X180830410Y-79132023D01*
X180767777Y-79009101D01*
X180714252Y-78904053D01*
X180595064Y-78740004D01*
X180563867Y-78697064D01*
X180563863Y-78697059D01*
X179366940Y-77500136D01*
X179366935Y-77500132D01*
X179159950Y-77349750D01*
X179159949Y-77349749D01*
X179159947Y-77349748D01*
X179086911Y-77312534D01*
X178931976Y-77233589D01*
X178931973Y-77233588D01*
X178688640Y-77154526D01*
X178562284Y-77134513D01*
X178435930Y-77114500D01*
X178435929Y-77114500D01*
X176824646Y-77114500D01*
X176770845Y-77102220D01*
X176681643Y-77059263D01*
X176681645Y-77059263D01*
X176423773Y-76979720D01*
X176423767Y-76979718D01*
X176156936Y-76939500D01*
X176156929Y-76939500D01*
X175887071Y-76939500D01*
X175887063Y-76939500D01*
X175620232Y-76979718D01*
X175620226Y-76979720D01*
X175362358Y-77059262D01*
X175119230Y-77176346D01*
X174896258Y-77328365D01*
X174698442Y-77511910D01*
X174530185Y-77722898D01*
X174395258Y-77956599D01*
X174395256Y-77956603D01*
X174296666Y-78207804D01*
X174296664Y-78207811D01*
X174236616Y-78470898D01*
X174216451Y-78739995D01*
X174216451Y-78740004D01*
X174236616Y-79009101D01*
X174296664Y-79272188D01*
X174296666Y-79272195D01*
X174332688Y-79363978D01*
X174395257Y-79523398D01*
X174530185Y-79757102D01*
X174666080Y-79927509D01*
X174698442Y-79968089D01*
X174885183Y-80141358D01*
X174896259Y-80151635D01*
X175119226Y-80303651D01*
X175362359Y-80420738D01*
X175620228Y-80500280D01*
X175620229Y-80500280D01*
X175620232Y-80500281D01*
X175887063Y-80540499D01*
X175887068Y-80540499D01*
X175887071Y-80540500D01*
X175887072Y-80540500D01*
X176156928Y-80540500D01*
X176156929Y-80540500D01*
X176156936Y-80540499D01*
X176423767Y-80500281D01*
X176423768Y-80500280D01*
X176423772Y-80500280D01*
X176681641Y-80420738D01*
X176755468Y-80385185D01*
X176770845Y-80377780D01*
X176824646Y-80365500D01*
X177574500Y-80365500D01*
X177641539Y-80385185D01*
X177687294Y-80437989D01*
X177698500Y-80489500D01*
X177698500Y-84055661D01*
X177678815Y-84122700D01*
X177626011Y-84168455D01*
X177556853Y-84178399D01*
X177493297Y-84149374D01*
X177469803Y-84122103D01*
X177356542Y-83943632D01*
X177356539Y-83943628D01*
X177265712Y-83833838D01*
X176624250Y-84475300D01*
X176550412Y-84373670D01*
X176372330Y-84195588D01*
X176270698Y-84121748D01*
X176915027Y-83477419D01*
X176915026Y-83477417D01*
X176672227Y-83301014D01*
X176672209Y-83301003D01*
X176396552Y-83149459D01*
X176396544Y-83149455D01*
X176104073Y-83033659D01*
X175799379Y-82955426D01*
X175799370Y-82955424D01*
X175487298Y-82916000D01*
X175172701Y-82916000D01*
X174860629Y-82955424D01*
X174860620Y-82955426D01*
X174555926Y-83033659D01*
X174263455Y-83149455D01*
X174263447Y-83149459D01*
X173987787Y-83301004D01*
X173987782Y-83301007D01*
X173744972Y-83477418D01*
X173744971Y-83477419D01*
X174389301Y-84121748D01*
X174287670Y-84195588D01*
X174109588Y-84373670D01*
X174035748Y-84475300D01*
X173394286Y-83833838D01*
X173394285Y-83833838D01*
X173303459Y-83943629D01*
X173303457Y-83943632D01*
X173134903Y-84209232D01*
X173134900Y-84209238D01*
X173000965Y-84493862D01*
X173000963Y-84493867D01*
X172903755Y-84793041D01*
X172844808Y-85102050D01*
X172844807Y-85102057D01*
X172825057Y-85415994D01*
X172825057Y-85416005D01*
X172844807Y-85729942D01*
X172844808Y-85729949D01*
X172903755Y-86038958D01*
X173000963Y-86338132D01*
X173000965Y-86338137D01*
X173134900Y-86622761D01*
X173134903Y-86622767D01*
X173303457Y-86888367D01*
X173303460Y-86888371D01*
X173394286Y-86998160D01*
X174035748Y-86356698D01*
X174109588Y-86458330D01*
X174287670Y-86636412D01*
X174389300Y-86710250D01*
X173744971Y-87354579D01*
X173744972Y-87354581D01*
X173987772Y-87530985D01*
X173987790Y-87530996D01*
X174263447Y-87682540D01*
X174263455Y-87682544D01*
X174555926Y-87798340D01*
X174860620Y-87876573D01*
X174860629Y-87876575D01*
X175172701Y-87915999D01*
X175172715Y-87916000D01*
X175487285Y-87916000D01*
X175487298Y-87915999D01*
X175799370Y-87876575D01*
X175799379Y-87876573D01*
X176104073Y-87798340D01*
X176396544Y-87682544D01*
X176396552Y-87682540D01*
X176672209Y-87530996D01*
X176672219Y-87530990D01*
X176915026Y-87354579D01*
X176915027Y-87354579D01*
X176270698Y-86710251D01*
X176372330Y-86636412D01*
X176550412Y-86458330D01*
X176624251Y-86356698D01*
X177265712Y-86998160D01*
X177356544Y-86888364D01*
X177469803Y-86709896D01*
X177522345Y-86663840D01*
X177591445Y-86653501D01*
X177655166Y-86682162D01*
X177693276Y-86740724D01*
X177698500Y-86776338D01*
X177698500Y-91705179D01*
X177678815Y-91772218D01*
X177626011Y-91817973D01*
X177556853Y-91827917D01*
X177556019Y-91827794D01*
X177374936Y-91800500D01*
X177374929Y-91800500D01*
X177105071Y-91800500D01*
X177105063Y-91800500D01*
X176838232Y-91840718D01*
X176838226Y-91840720D01*
X176580368Y-91920258D01*
X176576050Y-91921954D01*
X176575429Y-91920372D01*
X176513619Y-91930533D01*
X176449492Y-91902793D01*
X176416410Y-91859869D01*
X176390130Y-91803511D01*
X176390129Y-91803510D01*
X176339025Y-91730526D01*
X175742962Y-92326588D01*
X175725925Y-92263007D01*
X175660099Y-92148993D01*
X175567007Y-92055901D01*
X175452993Y-91990075D01*
X175389410Y-91973037D01*
X175985472Y-91376974D01*
X175912478Y-91325863D01*
X175706331Y-91229735D01*
X175706317Y-91229730D01*
X175486610Y-91170860D01*
X175486599Y-91170858D01*
X175260002Y-91151034D01*
X175259998Y-91151034D01*
X175033400Y-91170858D01*
X175033389Y-91170860D01*
X174813682Y-91229730D01*
X174813673Y-91229734D01*
X174607516Y-91325866D01*
X174607512Y-91325868D01*
X174534526Y-91376973D01*
X174534526Y-91376974D01*
X175130590Y-91973037D01*
X175067007Y-91990075D01*
X174952993Y-92055901D01*
X174859901Y-92148993D01*
X174851361Y-92163784D01*
X174791109Y-92089890D01*
X174633409Y-91961304D01*
X174633410Y-91961304D01*
X174633407Y-91961302D01*
X174453049Y-91867091D01*
X174453048Y-91867090D01*
X174453043Y-91867088D01*
X174294086Y-91821604D01*
X174240518Y-91790070D01*
X174180974Y-91730526D01*
X174180973Y-91730526D01*
X174169001Y-91747625D01*
X174114423Y-91791249D01*
X174067427Y-91800500D01*
X172421971Y-91800500D01*
X172421965Y-91800500D01*
X172421964Y-91800501D01*
X172410316Y-91801536D01*
X172302584Y-91811113D01*
X172106952Y-91867090D01*
X171934046Y-91957409D01*
X171876635Y-91971500D01*
X162839260Y-91971500D01*
X162772221Y-91951815D01*
X162726466Y-91899011D01*
X162716522Y-91829853D01*
X162745547Y-91766297D01*
X162754919Y-91756601D01*
X162783022Y-91730526D01*
X162867561Y-91652085D01*
X163035815Y-91441102D01*
X163170743Y-91207398D01*
X163233217Y-91048215D01*
X163260961Y-91005841D01*
X164307862Y-89958942D01*
X164458252Y-89751947D01*
X164572203Y-89528305D01*
X164574108Y-89524902D01*
X164574409Y-89523976D01*
X164574410Y-89523975D01*
X164653474Y-89280639D01*
X164693500Y-89027930D01*
X164693500Y-76115627D01*
X164713185Y-76048588D01*
X164765989Y-76002833D01*
X164835147Y-75992889D01*
X164864948Y-76001064D01*
X165028007Y-76068606D01*
X165255986Y-76129693D01*
X165489989Y-76160500D01*
X165489996Y-76160500D01*
X165726004Y-76160500D01*
X165726011Y-76160500D01*
X165960014Y-76129693D01*
X166187993Y-76068606D01*
X166351049Y-76001065D01*
X166420516Y-75993597D01*
X166482996Y-76024872D01*
X166518648Y-76084961D01*
X166522500Y-76115627D01*
X166522500Y-78613930D01*
X166535667Y-78697059D01*
X166562526Y-78866640D01*
X166633315Y-79084509D01*
X166636275Y-79095234D01*
X166676664Y-79272188D01*
X166676666Y-79272195D01*
X166712688Y-79363978D01*
X166775257Y-79523398D01*
X166910185Y-79757102D01*
X167046080Y-79927509D01*
X167078442Y-79968089D01*
X167265183Y-80141358D01*
X167276259Y-80151635D01*
X167499226Y-80303651D01*
X167742359Y-80420738D01*
X168000228Y-80500280D01*
X168000229Y-80500280D01*
X168000232Y-80500281D01*
X168267063Y-80540499D01*
X168267068Y-80540499D01*
X168267071Y-80540500D01*
X168267072Y-80540500D01*
X168536928Y-80540500D01*
X168536929Y-80540500D01*
X168536936Y-80540499D01*
X168803767Y-80500281D01*
X168803768Y-80500280D01*
X168803772Y-80500280D01*
X169061641Y-80420738D01*
X169304775Y-80303651D01*
X169527741Y-80151635D01*
X169725561Y-79968085D01*
X169893815Y-79757102D01*
X170028743Y-79523398D01*
X170127334Y-79272195D01*
X170187383Y-79009103D01*
X170207549Y-78740000D01*
X170204331Y-78697064D01*
X170187383Y-78470898D01*
X170127335Y-78207811D01*
X170127334Y-78207805D01*
X170028743Y-77956602D01*
X169893815Y-77722898D01*
X169800553Y-77605951D01*
X169774144Y-77541264D01*
X169773500Y-77528638D01*
X169773500Y-76115627D01*
X169793185Y-76048588D01*
X169845989Y-76002833D01*
X169915147Y-75992889D01*
X169944948Y-76001064D01*
X170108007Y-76068606D01*
X170335986Y-76129693D01*
X170569989Y-76160500D01*
X170569996Y-76160500D01*
X170806004Y-76160500D01*
X170806011Y-76160500D01*
X171040014Y-76129693D01*
X171267993Y-76068606D01*
X171486049Y-75978284D01*
X171690450Y-75860273D01*
X171877698Y-75716593D01*
X171880920Y-75714121D01*
X171881814Y-75715286D01*
X171939619Y-75688469D01*
X172008835Y-75697998D01*
X172034697Y-75714619D01*
X172035080Y-75714121D01*
X172038302Y-75716593D01*
X172225550Y-75860273D01*
X172356918Y-75936118D01*
X172429943Y-75978280D01*
X172429948Y-75978282D01*
X172429951Y-75978284D01*
X172648007Y-76068606D01*
X172875986Y-76129693D01*
X173109989Y-76160500D01*
X173109996Y-76160500D01*
X173346004Y-76160500D01*
X173346011Y-76160500D01*
X173580014Y-76129693D01*
X173807993Y-76068606D01*
X174026049Y-75978284D01*
X174230450Y-75860273D01*
X174417698Y-75716593D01*
X174420920Y-75714121D01*
X174421814Y-75715286D01*
X174479619Y-75688469D01*
X174548835Y-75697998D01*
X174574697Y-75714619D01*
X174575080Y-75714121D01*
X174578302Y-75716593D01*
X174765550Y-75860273D01*
X174896918Y-75936118D01*
X174969943Y-75978280D01*
X174969948Y-75978282D01*
X174969951Y-75978284D01*
X175188007Y-76068606D01*
X175415986Y-76129693D01*
X175649989Y-76160500D01*
X175649996Y-76160500D01*
X175886004Y-76160500D01*
X175886011Y-76160500D01*
X176120014Y-76129693D01*
X176347993Y-76068606D01*
X176566049Y-75978284D01*
X176770450Y-75860273D01*
X176957699Y-75716592D01*
X177124592Y-75549699D01*
X177268273Y-75362450D01*
X177386284Y-75158049D01*
X177476606Y-74939993D01*
X177537693Y-74712014D01*
X177568500Y-74478011D01*
X177568500Y-72841989D01*
X177537693Y-72607986D01*
X177476606Y-72380007D01*
X177386284Y-72161951D01*
X177386282Y-72161948D01*
X177386280Y-72161943D01*
X177293840Y-72001834D01*
X177268273Y-71957550D01*
X177124592Y-71770301D01*
X177124587Y-71770295D01*
X176957704Y-71603412D01*
X176957697Y-71603406D01*
X176770454Y-71459730D01*
X176770453Y-71459729D01*
X176770450Y-71459727D01*
X176688957Y-71412677D01*
X176566056Y-71341719D01*
X176566045Y-71341714D01*
X176347993Y-71251394D01*
X176120010Y-71190306D01*
X175886020Y-71159501D01*
X175886017Y-71159500D01*
X175886011Y-71159500D01*
X175649989Y-71159500D01*
X175649983Y-71159500D01*
X175649979Y-71159501D01*
X175415989Y-71190306D01*
X175188006Y-71251394D01*
X174969954Y-71341714D01*
X174969943Y-71341719D01*
X174765545Y-71459730D01*
X174575080Y-71605879D01*
X174574191Y-71604720D01*
X174516338Y-71631537D01*
X174447124Y-71621983D01*
X174421298Y-71605385D01*
X174420920Y-71605879D01*
X174230454Y-71459730D01*
X174230453Y-71459729D01*
X174230450Y-71459727D01*
X174148957Y-71412677D01*
X174026056Y-71341719D01*
X174026045Y-71341714D01*
X173807993Y-71251394D01*
X173580010Y-71190306D01*
X173346020Y-71159501D01*
X173346017Y-71159500D01*
X173346011Y-71159500D01*
X173109989Y-71159500D01*
X173109983Y-71159500D01*
X173109979Y-71159501D01*
X172875989Y-71190306D01*
X172648006Y-71251394D01*
X172429954Y-71341714D01*
X172429943Y-71341719D01*
X172225545Y-71459730D01*
X172035080Y-71605879D01*
X172034191Y-71604720D01*
X171976338Y-71631537D01*
X171907124Y-71621983D01*
X171881298Y-71605385D01*
X171880920Y-71605879D01*
X171690454Y-71459730D01*
X171690453Y-71459729D01*
X171690450Y-71459727D01*
X171608957Y-71412677D01*
X171486056Y-71341719D01*
X171486045Y-71341714D01*
X171267993Y-71251394D01*
X171040010Y-71190306D01*
X170806020Y-71159501D01*
X170806017Y-71159500D01*
X170806011Y-71159500D01*
X170569989Y-71159500D01*
X170569983Y-71159500D01*
X170569979Y-71159501D01*
X170335989Y-71190306D01*
X170108006Y-71251394D01*
X169889954Y-71341714D01*
X169889943Y-71341719D01*
X169685545Y-71459730D01*
X169495080Y-71605879D01*
X169494191Y-71604720D01*
X169436338Y-71631537D01*
X169367124Y-71621983D01*
X169341298Y-71605385D01*
X169340920Y-71605879D01*
X169150454Y-71459730D01*
X169150453Y-71459729D01*
X169150450Y-71459727D01*
X169068957Y-71412677D01*
X168946056Y-71341719D01*
X168946045Y-71341714D01*
X168727993Y-71251394D01*
X168500010Y-71190306D01*
X168266020Y-71159501D01*
X168266017Y-71159500D01*
X168266011Y-71159500D01*
X168029989Y-71159500D01*
X168029983Y-71159500D01*
X168029979Y-71159501D01*
X167795989Y-71190306D01*
X167568006Y-71251394D01*
X167349954Y-71341714D01*
X167349943Y-71341719D01*
X167145545Y-71459730D01*
X166955080Y-71605879D01*
X166954191Y-71604720D01*
X166896338Y-71631537D01*
X166827124Y-71621983D01*
X166801298Y-71605385D01*
X166800920Y-71605879D01*
X166610454Y-71459730D01*
X166610453Y-71459729D01*
X166610450Y-71459727D01*
X166528957Y-71412677D01*
X166406056Y-71341719D01*
X166406045Y-71341714D01*
X166187993Y-71251394D01*
X165960010Y-71190306D01*
X165726020Y-71159501D01*
X165726017Y-71159500D01*
X165726011Y-71159500D01*
X165489989Y-71159500D01*
X165489983Y-71159500D01*
X165489979Y-71159501D01*
X165255989Y-71190306D01*
X165028006Y-71251394D01*
X164809954Y-71341714D01*
X164809943Y-71341719D01*
X164605545Y-71459730D01*
X164415080Y-71605879D01*
X164414191Y-71604720D01*
X164356338Y-71631537D01*
X164287124Y-71621983D01*
X164261298Y-71605385D01*
X164260920Y-71605879D01*
X164070454Y-71459730D01*
X164070453Y-71459729D01*
X164070450Y-71459727D01*
X163988957Y-71412677D01*
X163866056Y-71341719D01*
X163866045Y-71341714D01*
X163647993Y-71251394D01*
X163420010Y-71190306D01*
X163186020Y-71159501D01*
X163186017Y-71159500D01*
X163186011Y-71159500D01*
X162949989Y-71159500D01*
X162949983Y-71159500D01*
X162949979Y-71159501D01*
X162715989Y-71190306D01*
X162488006Y-71251394D01*
X162269954Y-71341714D01*
X162269943Y-71341719D01*
X162065545Y-71459730D01*
X161875080Y-71605879D01*
X161874191Y-71604720D01*
X161816338Y-71631537D01*
X161747124Y-71621983D01*
X161721298Y-71605385D01*
X161720920Y-71605879D01*
X161530454Y-71459730D01*
X161530453Y-71459729D01*
X161530450Y-71459727D01*
X161448957Y-71412677D01*
X161326056Y-71341719D01*
X161326045Y-71341714D01*
X161107993Y-71251394D01*
X160880010Y-71190306D01*
X160646020Y-71159501D01*
X160646017Y-71159500D01*
X160646011Y-71159500D01*
X160409989Y-71159500D01*
X160409983Y-71159500D01*
X160409979Y-71159501D01*
X160175989Y-71190306D01*
X159948006Y-71251394D01*
X159729954Y-71341714D01*
X159729943Y-71341719D01*
X159525545Y-71459730D01*
X159335080Y-71605879D01*
X159334191Y-71604720D01*
X159276338Y-71631537D01*
X159207124Y-71621983D01*
X159181298Y-71605385D01*
X159180920Y-71605879D01*
X158990454Y-71459730D01*
X158990453Y-71459729D01*
X158990450Y-71459727D01*
X158908957Y-71412677D01*
X158786056Y-71341719D01*
X158786045Y-71341714D01*
X158567993Y-71251394D01*
X158340010Y-71190306D01*
X158106020Y-71159501D01*
X158106017Y-71159500D01*
X158106011Y-71159500D01*
X157869989Y-71159500D01*
X157869983Y-71159500D01*
X157869979Y-71159501D01*
X157635989Y-71190306D01*
X157408006Y-71251394D01*
X157189954Y-71341714D01*
X157189943Y-71341719D01*
X156985545Y-71459730D01*
X156798302Y-71603406D01*
X156798295Y-71603412D01*
X156631412Y-71770295D01*
X156631406Y-71770302D01*
X156487730Y-71957545D01*
X156369719Y-72161943D01*
X156369714Y-72161954D01*
X156279394Y-72380006D01*
X156218306Y-72607989D01*
X156187501Y-72841979D01*
X156187500Y-72841995D01*
X156187500Y-74478004D01*
X156187501Y-74478020D01*
X156218306Y-74712010D01*
X156279394Y-74939993D01*
X156353061Y-75117840D01*
X156362500Y-75165293D01*
X156362500Y-80555334D01*
X156342815Y-80622373D01*
X156326181Y-80643015D01*
X153221181Y-83748015D01*
X153159858Y-83781500D01*
X153090166Y-83776516D01*
X153034233Y-83734644D01*
X153009816Y-83669180D01*
X153009500Y-83660334D01*
X153009500Y-76113970D01*
X153029185Y-76046931D01*
X153081989Y-76001176D01*
X153151147Y-75991232D01*
X153180947Y-75999407D01*
X153348007Y-76068606D01*
X153575986Y-76129693D01*
X153809989Y-76160500D01*
X153809996Y-76160500D01*
X154046004Y-76160500D01*
X154046011Y-76160500D01*
X154280014Y-76129693D01*
X154507993Y-76068606D01*
X154726049Y-75978284D01*
X154930450Y-75860273D01*
X155117699Y-75716592D01*
X155284592Y-75549699D01*
X155428273Y-75362450D01*
X155546284Y-75158049D01*
X155636606Y-74939993D01*
X155697693Y-74712014D01*
X155728500Y-74478011D01*
X155728500Y-72841989D01*
X155697693Y-72607986D01*
X155636606Y-72380007D01*
X155546284Y-72161951D01*
X155546282Y-72161948D01*
X155546280Y-72161943D01*
X155453840Y-72001834D01*
X155428273Y-71957550D01*
X155284592Y-71770301D01*
X155284587Y-71770295D01*
X155117704Y-71603412D01*
X155117697Y-71603406D01*
X154930454Y-71459730D01*
X154930453Y-71459729D01*
X154930450Y-71459727D01*
X154848957Y-71412677D01*
X154726056Y-71341719D01*
X154726045Y-71341714D01*
X154507993Y-71251394D01*
X154280010Y-71190306D01*
X154046020Y-71159501D01*
X154046017Y-71159500D01*
X154046011Y-71159500D01*
X153809989Y-71159500D01*
X153809983Y-71159500D01*
X153809979Y-71159501D01*
X153575989Y-71190306D01*
X153348006Y-71251394D01*
X153129954Y-71341714D01*
X153129943Y-71341719D01*
X152925545Y-71459730D01*
X152735080Y-71605879D01*
X152734191Y-71604720D01*
X152676338Y-71631537D01*
X152607124Y-71621983D01*
X152581298Y-71605385D01*
X152580920Y-71605879D01*
X152390454Y-71459730D01*
X152390453Y-71459729D01*
X152390450Y-71459727D01*
X152308957Y-71412677D01*
X152186056Y-71341719D01*
X152186045Y-71341714D01*
X151967993Y-71251394D01*
X151740010Y-71190306D01*
X151506020Y-71159501D01*
X151506017Y-71159500D01*
X151506011Y-71159500D01*
X151269989Y-71159500D01*
X151269983Y-71159500D01*
X151269979Y-71159501D01*
X151035989Y-71190306D01*
X150808006Y-71251394D01*
X150589954Y-71341714D01*
X150589943Y-71341719D01*
X150385545Y-71459730D01*
X150195080Y-71605879D01*
X150194191Y-71604720D01*
X150136338Y-71631537D01*
X150067124Y-71621983D01*
X150041298Y-71605385D01*
X150040920Y-71605879D01*
X149850454Y-71459730D01*
X149850453Y-71459729D01*
X149850450Y-71459727D01*
X149768957Y-71412677D01*
X149646056Y-71341719D01*
X149646045Y-71341714D01*
X149427993Y-71251394D01*
X149200010Y-71190306D01*
X148966020Y-71159501D01*
X148966017Y-71159500D01*
X148966011Y-71159500D01*
X148729989Y-71159500D01*
X148729983Y-71159500D01*
X148729979Y-71159501D01*
X148495989Y-71190306D01*
X148268006Y-71251394D01*
X148049954Y-71341714D01*
X148049943Y-71341719D01*
X147845545Y-71459730D01*
X147655080Y-71605879D01*
X147654191Y-71604720D01*
X147596338Y-71631537D01*
X147527124Y-71621983D01*
X147501298Y-71605385D01*
X147500920Y-71605879D01*
X147310454Y-71459730D01*
X147310453Y-71459729D01*
X147310450Y-71459727D01*
X147228957Y-71412677D01*
X147106056Y-71341719D01*
X147106045Y-71341714D01*
X146887993Y-71251394D01*
X146660010Y-71190306D01*
X146426020Y-71159501D01*
X146426017Y-71159500D01*
X146426011Y-71159500D01*
X146189989Y-71159500D01*
X146189983Y-71159500D01*
X146189979Y-71159501D01*
X145955989Y-71190306D01*
X145728006Y-71251394D01*
X145509954Y-71341714D01*
X145509943Y-71341719D01*
X145305545Y-71459730D01*
X145115080Y-71605879D01*
X145114191Y-71604720D01*
X145056338Y-71631537D01*
X144987124Y-71621983D01*
X144961298Y-71605385D01*
X144960920Y-71605879D01*
X144770454Y-71459730D01*
X144770453Y-71459729D01*
X144770450Y-71459727D01*
X144688957Y-71412677D01*
X144566056Y-71341719D01*
X144566045Y-71341714D01*
X144347993Y-71251394D01*
X144120010Y-71190306D01*
X143886020Y-71159501D01*
X143886017Y-71159500D01*
X143886011Y-71159500D01*
X143649989Y-71159500D01*
X143649983Y-71159500D01*
X143649979Y-71159501D01*
X143415989Y-71190306D01*
X143188006Y-71251394D01*
X142969954Y-71341714D01*
X142969943Y-71341719D01*
X142765545Y-71459730D01*
X142575080Y-71605879D01*
X142574191Y-71604720D01*
X142516338Y-71631537D01*
X142447124Y-71621983D01*
X142421298Y-71605385D01*
X142420920Y-71605879D01*
X142230454Y-71459730D01*
X142230453Y-71459729D01*
X142230450Y-71459727D01*
X142148957Y-71412677D01*
X142026056Y-71341719D01*
X142026045Y-71341714D01*
X141807993Y-71251394D01*
X141580010Y-71190306D01*
X141346020Y-71159501D01*
X141346017Y-71159500D01*
X141346011Y-71159500D01*
X141109989Y-71159500D01*
X141109983Y-71159500D01*
X141109979Y-71159501D01*
X140875989Y-71190306D01*
X140648006Y-71251394D01*
X140429954Y-71341714D01*
X140429943Y-71341719D01*
X140225545Y-71459730D01*
X140038302Y-71603406D01*
X140038295Y-71603412D01*
X139871412Y-71770295D01*
X139725361Y-71960632D01*
X139668933Y-72001834D01*
X139599186Y-72005989D01*
X139539304Y-71972826D01*
X139534895Y-71968417D01*
X139369349Y-71848140D01*
X139187029Y-71755244D01*
X138992413Y-71692009D01*
X138938000Y-71683390D01*
X138938000Y-73379670D01*
X138918255Y-73359925D01*
X138832745Y-73310556D01*
X138737370Y-73285000D01*
X138638630Y-73285000D01*
X138543255Y-73310556D01*
X138457745Y-73359925D01*
X138438000Y-73379670D01*
X138438000Y-71683390D01*
X138383586Y-71692009D01*
X138188970Y-71755244D01*
X138006650Y-71848140D01*
X137841106Y-71968415D01*
X137836690Y-71972832D01*
X137775364Y-72006313D01*
X137705673Y-72001324D01*
X137650638Y-71960631D01*
X137504593Y-71770302D01*
X137504587Y-71770295D01*
X137337704Y-71603412D01*
X137337697Y-71603406D01*
X137150454Y-71459730D01*
X137150453Y-71459729D01*
X137150450Y-71459727D01*
X137068957Y-71412677D01*
X136946056Y-71341719D01*
X136946045Y-71341714D01*
X136727993Y-71251394D01*
X136500010Y-71190306D01*
X136266020Y-71159501D01*
X136266017Y-71159500D01*
X136266011Y-71159500D01*
X136029989Y-71159500D01*
X136029983Y-71159500D01*
X136029979Y-71159501D01*
X135795989Y-71190306D01*
X135568006Y-71251394D01*
X135349954Y-71341714D01*
X135349943Y-71341719D01*
X135145545Y-71459730D01*
X134955080Y-71605879D01*
X134954191Y-71604720D01*
X134896338Y-71631537D01*
X134827124Y-71621983D01*
X134801298Y-71605385D01*
X134800920Y-71605879D01*
X134610454Y-71459730D01*
X134610453Y-71459729D01*
X134610450Y-71459727D01*
X134528957Y-71412677D01*
X134406056Y-71341719D01*
X134406045Y-71341714D01*
X134187993Y-71251394D01*
X133960010Y-71190306D01*
X133726020Y-71159501D01*
X133726017Y-71159500D01*
X133726011Y-71159500D01*
X133489989Y-71159500D01*
X133489983Y-71159500D01*
X133489979Y-71159501D01*
X133255989Y-71190306D01*
X133028006Y-71251394D01*
X132809954Y-71341714D01*
X132809943Y-71341719D01*
X132605545Y-71459730D01*
X132415080Y-71605879D01*
X132414191Y-71604720D01*
X132356338Y-71631537D01*
X132287124Y-71621983D01*
X132261298Y-71605385D01*
X132260920Y-71605879D01*
X132070454Y-71459730D01*
X132070453Y-71459729D01*
X132070450Y-71459727D01*
X131988957Y-71412677D01*
X131866056Y-71341719D01*
X131866045Y-71341714D01*
X131647993Y-71251394D01*
X131420010Y-71190306D01*
X131186020Y-71159501D01*
X131186017Y-71159500D01*
X131186011Y-71159500D01*
X130949989Y-71159500D01*
X130949983Y-71159500D01*
X130949979Y-71159501D01*
X130715989Y-71190306D01*
X130488006Y-71251394D01*
X130269954Y-71341714D01*
X130269943Y-71341719D01*
X130065545Y-71459730D01*
X129878302Y-71603406D01*
X129878295Y-71603412D01*
X129711412Y-71770295D01*
X129711406Y-71770302D01*
X129567730Y-71957545D01*
X129449719Y-72161943D01*
X129449714Y-72161954D01*
X129359394Y-72380006D01*
X129298306Y-72607989D01*
X129267501Y-72841979D01*
X129267500Y-72841995D01*
X129267500Y-74478004D01*
X129267501Y-74478020D01*
X129298306Y-74712010D01*
X129359394Y-74939993D01*
X129449714Y-75158045D01*
X129449719Y-75158056D01*
X129520677Y-75280957D01*
X129567727Y-75362450D01*
X129567729Y-75362453D01*
X129567730Y-75362454D01*
X129711406Y-75549697D01*
X129711412Y-75549704D01*
X129878295Y-75716587D01*
X129878301Y-75716592D01*
X130065550Y-75860273D01*
X130196918Y-75936118D01*
X130269943Y-75978280D01*
X130269948Y-75978282D01*
X130269951Y-75978284D01*
X130488007Y-76068606D01*
X130715986Y-76129693D01*
X130949989Y-76160500D01*
X130949996Y-76160500D01*
X131186004Y-76160500D01*
X131186011Y-76160500D01*
X131420014Y-76129693D01*
X131647993Y-76068606D01*
X131866049Y-75978284D01*
X132070450Y-75860273D01*
X132257698Y-75716593D01*
X132260920Y-75714121D01*
X132261814Y-75715286D01*
X132319619Y-75688469D01*
X132388835Y-75697998D01*
X132414697Y-75714619D01*
X132415080Y-75714121D01*
X132418302Y-75716593D01*
X132605550Y-75860273D01*
X132736918Y-75936118D01*
X132809943Y-75978280D01*
X132809948Y-75978282D01*
X132809951Y-75978284D01*
X133028007Y-76068606D01*
X133255986Y-76129693D01*
X133489989Y-76160500D01*
X133489996Y-76160500D01*
X133726004Y-76160500D01*
X133726011Y-76160500D01*
X133960014Y-76129693D01*
X134187993Y-76068606D01*
X134406049Y-75978284D01*
X134610450Y-75860273D01*
X134797698Y-75716593D01*
X134800920Y-75714121D01*
X134801814Y-75715286D01*
X134859619Y-75688469D01*
X134928835Y-75697998D01*
X134954697Y-75714619D01*
X134955080Y-75714121D01*
X134958302Y-75716593D01*
X135145550Y-75860273D01*
X135276918Y-75936118D01*
X135349943Y-75978280D01*
X135349948Y-75978282D01*
X135349951Y-75978284D01*
X135568007Y-76068606D01*
X135795986Y-76129693D01*
X136029989Y-76160500D01*
X136029996Y-76160500D01*
X136266004Y-76160500D01*
X136266011Y-76160500D01*
X136500014Y-76129693D01*
X136727993Y-76068606D01*
X136946049Y-75978284D01*
X137150450Y-75860273D01*
X137337699Y-75716592D01*
X137504592Y-75549699D01*
X137648273Y-75362450D01*
X137648272Y-75362450D01*
X137650638Y-75359368D01*
X137707066Y-75318165D01*
X137776812Y-75314010D01*
X137836695Y-75347173D01*
X137841104Y-75351582D01*
X138006650Y-75471859D01*
X138188968Y-75564754D01*
X138383578Y-75627988D01*
X138438000Y-75636607D01*
X138438000Y-73940330D01*
X138457745Y-73960075D01*
X138543255Y-74009444D01*
X138638630Y-74035000D01*
X138737370Y-74035000D01*
X138832745Y-74009444D01*
X138918255Y-73960075D01*
X138938000Y-73940330D01*
X138938000Y-75636606D01*
X138992421Y-75627988D01*
X139187031Y-75564754D01*
X139369349Y-75471859D01*
X139534893Y-75351583D01*
X139539299Y-75347178D01*
X139600620Y-75313689D01*
X139670312Y-75318669D01*
X139725362Y-75359368D01*
X139871406Y-75549697D01*
X139871412Y-75549704D01*
X140038295Y-75716587D01*
X140038301Y-75716592D01*
X140225550Y-75860273D01*
X140356918Y-75936118D01*
X140429943Y-75978280D01*
X140429948Y-75978282D01*
X140429951Y-75978284D01*
X140648007Y-76068606D01*
X140875986Y-76129693D01*
X141109989Y-76160500D01*
X141109996Y-76160500D01*
X141346004Y-76160500D01*
X141346011Y-76160500D01*
X141580014Y-76129693D01*
X141807993Y-76068606D01*
X142026049Y-75978284D01*
X142230450Y-75860273D01*
X142417698Y-75716593D01*
X142420920Y-75714121D01*
X142421814Y-75715286D01*
X142479619Y-75688469D01*
X142548835Y-75697998D01*
X142574697Y-75714619D01*
X142575080Y-75714121D01*
X142578302Y-75716593D01*
X142765550Y-75860273D01*
X142896918Y-75936118D01*
X142969943Y-75978280D01*
X142969948Y-75978282D01*
X142969951Y-75978284D01*
X143188007Y-76068606D01*
X143415986Y-76129693D01*
X143649989Y-76160500D01*
X143649996Y-76160500D01*
X143886004Y-76160500D01*
X143886011Y-76160500D01*
X144120014Y-76129693D01*
X144347993Y-76068606D01*
X144566049Y-75978284D01*
X144770450Y-75860273D01*
X144957698Y-75716593D01*
X144960920Y-75714121D01*
X144961814Y-75715286D01*
X145019619Y-75688469D01*
X145088835Y-75697998D01*
X145114697Y-75714619D01*
X145115080Y-75714121D01*
X145118302Y-75716593D01*
X145305550Y-75860273D01*
X145436918Y-75936118D01*
X145509943Y-75978280D01*
X145509948Y-75978282D01*
X145509951Y-75978284D01*
X145728007Y-76068606D01*
X145955986Y-76129693D01*
X146189989Y-76160500D01*
X146189996Y-76160500D01*
X146426004Y-76160500D01*
X146426011Y-76160500D01*
X146660014Y-76129693D01*
X146887993Y-76068606D01*
X147106049Y-75978284D01*
X147310450Y-75860273D01*
X147497698Y-75716593D01*
X147500920Y-75714121D01*
X147501814Y-75715286D01*
X147559619Y-75688469D01*
X147628835Y-75697998D01*
X147654697Y-75714619D01*
X147655080Y-75714121D01*
X147658302Y-75716593D01*
X147845550Y-75860273D01*
X147976918Y-75936118D01*
X148049943Y-75978280D01*
X148049948Y-75978282D01*
X148049951Y-75978284D01*
X148268007Y-76068606D01*
X148495986Y-76129693D01*
X148729989Y-76160500D01*
X148729996Y-76160500D01*
X148966004Y-76160500D01*
X148966011Y-76160500D01*
X149200014Y-76129693D01*
X149427993Y-76068606D01*
X149587048Y-76002722D01*
X149656516Y-75995254D01*
X149718996Y-76026529D01*
X149754648Y-76086618D01*
X149758500Y-76117284D01*
X149758500Y-92506617D01*
X149738815Y-92573656D01*
X149718841Y-92597515D01*
X149552447Y-92751905D01*
X149552444Y-92751908D01*
X149384185Y-92962898D01*
X149249258Y-93196599D01*
X149249256Y-93196603D01*
X149150666Y-93447804D01*
X149150664Y-93447811D01*
X149090616Y-93710898D01*
X149070451Y-93979995D01*
X149070451Y-93980004D01*
X149090616Y-94249101D01*
X149150664Y-94512188D01*
X149150666Y-94512195D01*
X149232460Y-94720602D01*
X149249257Y-94763398D01*
X149384185Y-94997102D01*
X149408199Y-95027214D01*
X149552442Y-95208089D01*
X149739183Y-95381358D01*
X149750259Y-95391635D01*
X149973226Y-95543651D01*
X150216359Y-95660738D01*
X150474228Y-95740280D01*
X150474229Y-95740280D01*
X150474232Y-95740281D01*
X150741063Y-95780499D01*
X150741068Y-95780499D01*
X150741071Y-95780500D01*
X150741072Y-95780500D01*
X151010928Y-95780500D01*
X151010929Y-95780500D01*
X151010936Y-95780499D01*
X151277767Y-95740281D01*
X151277768Y-95740280D01*
X151277772Y-95740280D01*
X151535641Y-95660738D01*
X151778775Y-95543651D01*
X152001741Y-95391635D01*
X152158698Y-95246000D01*
X152199557Y-95208089D01*
X152199557Y-95208087D01*
X152199561Y-95208085D01*
X152367815Y-94997102D01*
X152502743Y-94763398D01*
X152565216Y-94604217D01*
X152592962Y-94561840D01*
X152623862Y-94530942D01*
X152649735Y-94495329D01*
X152705063Y-94452662D01*
X152774677Y-94446681D01*
X152836473Y-94479285D01*
X152870832Y-94540123D01*
X152866845Y-94609879D01*
X152857443Y-94630211D01*
X152805256Y-94720603D01*
X152706666Y-94971804D01*
X152706664Y-94971811D01*
X152646616Y-95234898D01*
X152626451Y-95503995D01*
X152626451Y-95504004D01*
X152646616Y-95773101D01*
X152648305Y-95780499D01*
X152706666Y-96036195D01*
X152805257Y-96287398D01*
X152940185Y-96521102D01*
X152979240Y-96570075D01*
X153108442Y-96732089D01*
X153295183Y-96905358D01*
X153306259Y-96915635D01*
X153529226Y-97067651D01*
X153529229Y-97067652D01*
X153529230Y-97067653D01*
X153559490Y-97082225D01*
X153772359Y-97184738D01*
X154030228Y-97264280D01*
X154030229Y-97264280D01*
X154030232Y-97264281D01*
X154297063Y-97304499D01*
X154297068Y-97304499D01*
X154297071Y-97304500D01*
X154524450Y-97304500D01*
X154543847Y-97306026D01*
X154557957Y-97308261D01*
X154628904Y-97319499D01*
X154628908Y-97319499D01*
X154865097Y-97319499D01*
X154978184Y-97301587D01*
X155098368Y-97282552D01*
X155322992Y-97209568D01*
X155533433Y-97102343D01*
X155635507Y-97028181D01*
X155701313Y-97004702D01*
X155708392Y-97004500D01*
X159850343Y-97004500D01*
X159917382Y-97024185D01*
X159963137Y-97076989D01*
X159973081Y-97146147D01*
X159957730Y-97190500D01*
X159917258Y-97260599D01*
X159917256Y-97260603D01*
X159818666Y-97511804D01*
X159818664Y-97511811D01*
X159758616Y-97774898D01*
X159738451Y-98043995D01*
X159738451Y-98044004D01*
X159758616Y-98313101D01*
X159775700Y-98387950D01*
X159818666Y-98576195D01*
X159917257Y-98827398D01*
X160052185Y-99061102D01*
X160188080Y-99231509D01*
X160220442Y-99272089D01*
X160407183Y-99445358D01*
X160418259Y-99455635D01*
X160641226Y-99607651D01*
X160641229Y-99607652D01*
X160641230Y-99607653D01*
X160671490Y-99622225D01*
X160884359Y-99724738D01*
X161142228Y-99804280D01*
X161142229Y-99804280D01*
X161142232Y-99804281D01*
X161409063Y-99844499D01*
X161409068Y-99844499D01*
X161409071Y-99844500D01*
X161409072Y-99844500D01*
X161678928Y-99844500D01*
X161678929Y-99844500D01*
X161678936Y-99844499D01*
X161945767Y-99804281D01*
X161945768Y-99804280D01*
X161945772Y-99804280D01*
X162203641Y-99724738D01*
X162395765Y-99632216D01*
X162446767Y-99607655D01*
X162446767Y-99607654D01*
X162446775Y-99607651D01*
X162507798Y-99566045D01*
X162574277Y-99544546D01*
X162577649Y-99544500D01*
X171527546Y-99544500D01*
X171594585Y-99564185D01*
X171640340Y-99616989D01*
X171650284Y-99686147D01*
X171642974Y-99713801D01*
X171638682Y-99724738D01*
X171554666Y-99938804D01*
X171554664Y-99938811D01*
X171494616Y-100201898D01*
X171474451Y-100470995D01*
X171474451Y-100471004D01*
X171494616Y-100740101D01*
X171554664Y-101003188D01*
X171554666Y-101003195D01*
X171650993Y-101248631D01*
X171653257Y-101254398D01*
X171788185Y-101488102D01*
X171837686Y-101550174D01*
X171956442Y-101699089D01*
X172133282Y-101863171D01*
X172154259Y-101882635D01*
X172154590Y-101882861D01*
X172154681Y-101882972D01*
X172157889Y-101885530D01*
X172157342Y-101886215D01*
X172198898Y-101936882D01*
X172206966Y-102006284D01*
X172186327Y-102056444D01*
X172149867Y-102108514D01*
X172149866Y-102108516D01*
X172053734Y-102314673D01*
X172053730Y-102314682D01*
X171994860Y-102534389D01*
X171994858Y-102534400D01*
X171975034Y-102760997D01*
X171975034Y-102761002D01*
X171994858Y-102987599D01*
X171994860Y-102987610D01*
X172053730Y-103207317D01*
X172053735Y-103207331D01*
X172149863Y-103413478D01*
X172200974Y-103486472D01*
X172797037Y-102890409D01*
X172814075Y-102953993D01*
X172879901Y-103068007D01*
X172972993Y-103161099D01*
X173087007Y-103226925D01*
X173150590Y-103243962D01*
X172554526Y-103840025D01*
X172627513Y-103891132D01*
X172627521Y-103891136D01*
X172833668Y-103987264D01*
X172833682Y-103987269D01*
X173053389Y-104046139D01*
X173053400Y-104046141D01*
X173279998Y-104065966D01*
X173280002Y-104065966D01*
X173506599Y-104046141D01*
X173506610Y-104046139D01*
X173726317Y-103987269D01*
X173726331Y-103987264D01*
X173932478Y-103891136D01*
X174005471Y-103840024D01*
X173409409Y-103243962D01*
X173472993Y-103226925D01*
X173587007Y-103161099D01*
X173680099Y-103068007D01*
X173745925Y-102953993D01*
X173762962Y-102890409D01*
X174359024Y-103486471D01*
X174410136Y-103413478D01*
X174506264Y-103207331D01*
X174506269Y-103207317D01*
X174565139Y-102987610D01*
X174565141Y-102987600D01*
X174571665Y-102913029D01*
X174597117Y-102847961D01*
X174653708Y-102806982D01*
X174723469Y-102803103D01*
X174747598Y-102811454D01*
X174813673Y-102842266D01*
X174813682Y-102842269D01*
X175033389Y-102901139D01*
X175033400Y-102901141D01*
X175259998Y-102920966D01*
X175260002Y-102920966D01*
X175320146Y-102915704D01*
X175388646Y-102929471D01*
X175438829Y-102978086D01*
X175453282Y-103025612D01*
X175453925Y-103025516D01*
X175454585Y-103029898D01*
X175454606Y-103029966D01*
X175454616Y-103030100D01*
X175507317Y-103261000D01*
X175514666Y-103293195D01*
X175613257Y-103544398D01*
X175748185Y-103778102D01*
X175884080Y-103948509D01*
X175916442Y-103989089D01*
X176103183Y-104162358D01*
X176114259Y-104172635D01*
X176337226Y-104324651D01*
X176580359Y-104441738D01*
X176838228Y-104521280D01*
X176838229Y-104521280D01*
X176838232Y-104521281D01*
X177105063Y-104561499D01*
X177105068Y-104561499D01*
X177105071Y-104561500D01*
X177105072Y-104561500D01*
X177374928Y-104561500D01*
X177374929Y-104561500D01*
X177450232Y-104550150D01*
X177641767Y-104521281D01*
X177641768Y-104521280D01*
X177641772Y-104521280D01*
X177899641Y-104441738D01*
X178142775Y-104324651D01*
X178142789Y-104324641D01*
X178145489Y-104323083D01*
X178146583Y-104322817D01*
X178146956Y-104322638D01*
X178146994Y-104322717D01*
X178213387Y-104306604D01*
X178279417Y-104329449D01*
X178322613Y-104384366D01*
X178331500Y-104430464D01*
X178331500Y-104483111D01*
X178311815Y-104550150D01*
X178295181Y-104570792D01*
X177722792Y-105143181D01*
X177661469Y-105176666D01*
X177635111Y-105179500D01*
X169328889Y-105179500D01*
X169261850Y-105159815D01*
X169241208Y-105143181D01*
X164553511Y-100455484D01*
X164438482Y-100371910D01*
X164362434Y-100316657D01*
X164151996Y-100209433D01*
X163927368Y-100136446D01*
X163694097Y-100099500D01*
X163694092Y-100099500D01*
X151909649Y-100099500D01*
X151842610Y-100079815D01*
X151839830Y-100077976D01*
X151778775Y-100036349D01*
X151778769Y-100036346D01*
X151778768Y-100036345D01*
X151778767Y-100036344D01*
X151535643Y-99919263D01*
X151535645Y-99919263D01*
X151277773Y-99839720D01*
X151277767Y-99839718D01*
X151010936Y-99799500D01*
X151010929Y-99799500D01*
X150741071Y-99799500D01*
X150741063Y-99799500D01*
X150474232Y-99839718D01*
X150474226Y-99839720D01*
X150216358Y-99919262D01*
X149973230Y-100036346D01*
X149750258Y-100188365D01*
X149552442Y-100371910D01*
X149384185Y-100582898D01*
X149249258Y-100816599D01*
X149249256Y-100816603D01*
X149150666Y-101067804D01*
X149150664Y-101067811D01*
X149090616Y-101330898D01*
X149070451Y-101599995D01*
X149070451Y-101600004D01*
X149090616Y-101869100D01*
X149115907Y-101979907D01*
X149111634Y-102049646D01*
X149070335Y-102106004D01*
X149005123Y-102131087D01*
X148995016Y-102131500D01*
X146321649Y-102131500D01*
X146254610Y-102111815D01*
X146251830Y-102109976D01*
X146190775Y-102068349D01*
X146190769Y-102068346D01*
X146190768Y-102068345D01*
X146190767Y-102068344D01*
X145947643Y-101951263D01*
X145947645Y-101951263D01*
X145689773Y-101871720D01*
X145689767Y-101871718D01*
X145422936Y-101831500D01*
X145422929Y-101831500D01*
X145153071Y-101831500D01*
X145153063Y-101831500D01*
X144886232Y-101871718D01*
X144886226Y-101871720D01*
X144628358Y-101951262D01*
X144385230Y-102068346D01*
X144162258Y-102220365D01*
X143964442Y-102403910D01*
X143796185Y-102614898D01*
X143661258Y-102848599D01*
X143661256Y-102848603D01*
X143562666Y-103099804D01*
X143562664Y-103099811D01*
X143502616Y-103362898D01*
X143482451Y-103631995D01*
X143482451Y-103632004D01*
X143502616Y-103901101D01*
X143562664Y-104164188D01*
X143562666Y-104164195D01*
X143653928Y-104396724D01*
X143662500Y-104442027D01*
X143662500Y-107466092D01*
X143642815Y-107533131D01*
X143590011Y-107578886D01*
X143520853Y-107588830D01*
X143467377Y-107567667D01*
X143425583Y-107538402D01*
X143425579Y-107538400D01*
X143211492Y-107438570D01*
X143211486Y-107438567D01*
X142998000Y-107381364D01*
X142998000Y-108278988D01*
X142940993Y-108246075D01*
X142813826Y-108212000D01*
X142682174Y-108212000D01*
X142555007Y-108246075D01*
X142498000Y-108278988D01*
X142498000Y-107381364D01*
X142497999Y-107381364D01*
X142284513Y-107438567D01*
X142284507Y-107438570D01*
X142070422Y-107538399D01*
X142070420Y-107538400D01*
X141876926Y-107673886D01*
X141876920Y-107673891D01*
X141709891Y-107840920D01*
X141709886Y-107840926D01*
X141574400Y-108034420D01*
X141574399Y-108034422D01*
X141474570Y-108248507D01*
X141474567Y-108248513D01*
X141417364Y-108461999D01*
X141417364Y-108462000D01*
X142314988Y-108462000D01*
X142282075Y-108519007D01*
X142248000Y-108646174D01*
X142248000Y-108777826D01*
X142282075Y-108904993D01*
X142314988Y-108962000D01*
X141417364Y-108962000D01*
X141474567Y-109175486D01*
X141474570Y-109175492D01*
X141574399Y-109389578D01*
X141709894Y-109583082D01*
X141876917Y-109750105D01*
X142070421Y-109885600D01*
X142284507Y-109985429D01*
X142284516Y-109985433D01*
X142498000Y-110042634D01*
X142498000Y-109145012D01*
X142555007Y-109177925D01*
X142682174Y-109212000D01*
X142813826Y-109212000D01*
X142940993Y-109177925D01*
X142998000Y-109145012D01*
X142998000Y-110042633D01*
X143211483Y-109985433D01*
X143211492Y-109985429D01*
X143425579Y-109885599D01*
X143425585Y-109885595D01*
X143589352Y-109770924D01*
X143655558Y-109748596D01*
X143723325Y-109765606D01*
X143771139Y-109816553D01*
X143778405Y-109834174D01*
X143781590Y-109843975D01*
X143892907Y-110062447D01*
X143897750Y-110071950D01*
X144048132Y-110278935D01*
X144048136Y-110278940D01*
X144229059Y-110459863D01*
X144229064Y-110459867D01*
X144370325Y-110562498D01*
X144436053Y-110610252D01*
X144579914Y-110683553D01*
X144664024Y-110726410D01*
X144664027Y-110726411D01*
X144785693Y-110765942D01*
X144907361Y-110805474D01*
X145160070Y-110845500D01*
X145160071Y-110845500D01*
X145415929Y-110845500D01*
X145415930Y-110845500D01*
X145668639Y-110805474D01*
X145911975Y-110726410D01*
X146139947Y-110610252D01*
X146346942Y-110459862D01*
X146527862Y-110278942D01*
X146542276Y-110259103D01*
X146597604Y-110216435D01*
X146667218Y-110210454D01*
X146729014Y-110243058D01*
X146730277Y-110244304D01*
X146850490Y-110364517D01*
X147041567Y-110503343D01*
X147117285Y-110541923D01*
X147252003Y-110610566D01*
X147252005Y-110610566D01*
X147252008Y-110610568D01*
X147372412Y-110649689D01*
X147476631Y-110683553D01*
X147709903Y-110720500D01*
X147709908Y-110720500D01*
X147946097Y-110720500D01*
X148179368Y-110683553D01*
X148403992Y-110610568D01*
X148614433Y-110503343D01*
X148788278Y-110377036D01*
X148854080Y-110353558D01*
X148922134Y-110369383D01*
X148939516Y-110381250D01*
X148964593Y-110401698D01*
X149144951Y-110495909D01*
X149340582Y-110551886D01*
X149459963Y-110562500D01*
X151276036Y-110562499D01*
X151395418Y-110551886D01*
X151591049Y-110495909D01*
X151771407Y-110401698D01*
X151815927Y-110365397D01*
X151880323Y-110338289D01*
X151894287Y-110337500D01*
X155777397Y-110337500D01*
X155818088Y-110345197D01*
X155818244Y-110344695D01*
X155822673Y-110346061D01*
X155822677Y-110346063D01*
X156073385Y-110423396D01*
X156332818Y-110462500D01*
X156595182Y-110462500D01*
X156854615Y-110423396D01*
X157105323Y-110346063D01*
X157341704Y-110232228D01*
X157558479Y-110084433D01*
X157750805Y-109905981D01*
X157914386Y-109700857D01*
X158045568Y-109473643D01*
X158141420Y-109229416D01*
X158199802Y-108973630D01*
X158202050Y-108943629D01*
X158219408Y-108712004D01*
X158219408Y-108711995D01*
X158199803Y-108450379D01*
X158199802Y-108450374D01*
X158199802Y-108450370D01*
X158141420Y-108194584D01*
X158045568Y-107950357D01*
X157914386Y-107723143D01*
X157750805Y-107518019D01*
X157750804Y-107518018D01*
X157750801Y-107518014D01*
X157655771Y-107429841D01*
X157601406Y-107379397D01*
X157565652Y-107319371D01*
X157568027Y-107249542D01*
X157607777Y-107192081D01*
X157672283Y-107165233D01*
X157685748Y-107164500D01*
X159855111Y-107164500D01*
X159922150Y-107184185D01*
X159942792Y-107200819D01*
X169151181Y-116409208D01*
X169184666Y-116470531D01*
X169187500Y-116496889D01*
X169187500Y-117236111D01*
X169167815Y-117303150D01*
X169115011Y-117348905D01*
X169045853Y-117358849D01*
X168982297Y-117329824D01*
X168975819Y-117323792D01*
X163791511Y-112139484D01*
X163676482Y-112055910D01*
X163600434Y-112000657D01*
X163595533Y-111998160D01*
X163389996Y-111893433D01*
X163165368Y-111820446D01*
X162932097Y-111783500D01*
X162932092Y-111783500D01*
X146321649Y-111783500D01*
X146254610Y-111763815D01*
X146251830Y-111761976D01*
X146190775Y-111720349D01*
X146190769Y-111720346D01*
X146190768Y-111720345D01*
X146190767Y-111720344D01*
X145947643Y-111603263D01*
X145947645Y-111603263D01*
X145689773Y-111523720D01*
X145689767Y-111523718D01*
X145422936Y-111483500D01*
X145422929Y-111483500D01*
X145153071Y-111483500D01*
X145153063Y-111483500D01*
X144886232Y-111523718D01*
X144886226Y-111523720D01*
X144628358Y-111603262D01*
X144385230Y-111720346D01*
X144162258Y-111872365D01*
X143964442Y-112055910D01*
X143796185Y-112266898D01*
X143661258Y-112500599D01*
X143661256Y-112500603D01*
X143562666Y-112751804D01*
X143562664Y-112751811D01*
X143502616Y-113014898D01*
X143482451Y-113283995D01*
X143482451Y-113284004D01*
X143502616Y-113553101D01*
X143543067Y-113730326D01*
X143562666Y-113816195D01*
X143643269Y-114021567D01*
X143653928Y-114048724D01*
X143662500Y-114094027D01*
X143662500Y-116610092D01*
X143642815Y-116677131D01*
X143590011Y-116722886D01*
X143520853Y-116732830D01*
X143467377Y-116711667D01*
X143425583Y-116682402D01*
X143425579Y-116682400D01*
X143211492Y-116582570D01*
X143211486Y-116582567D01*
X142998000Y-116525364D01*
X142998000Y-117422988D01*
X142940993Y-117390075D01*
X142813826Y-117356000D01*
X142682174Y-117356000D01*
X142555007Y-117390075D01*
X142498000Y-117422988D01*
X142498000Y-116525364D01*
X142497999Y-116525364D01*
X142284513Y-116582567D01*
X142284507Y-116582570D01*
X142070422Y-116682399D01*
X142070420Y-116682400D01*
X141876926Y-116817886D01*
X141876920Y-116817891D01*
X141709891Y-116984920D01*
X141709886Y-116984926D01*
X141574400Y-117178420D01*
X141574399Y-117178422D01*
X141474570Y-117392507D01*
X141474567Y-117392513D01*
X141417364Y-117605999D01*
X141417364Y-117606000D01*
X142314988Y-117606000D01*
X142282075Y-117663007D01*
X142248000Y-117790174D01*
X142248000Y-117921826D01*
X142282075Y-118048993D01*
X142314988Y-118106000D01*
X141417364Y-118106000D01*
X141474567Y-118319486D01*
X141474570Y-118319492D01*
X141574399Y-118533578D01*
X141709894Y-118727082D01*
X141876917Y-118894105D01*
X142070421Y-119029600D01*
X142284507Y-119129429D01*
X142284516Y-119129433D01*
X142512671Y-119190567D01*
X142512740Y-119190579D01*
X142512767Y-119190592D01*
X142517908Y-119191970D01*
X142517631Y-119193002D01*
X142575347Y-119221597D01*
X142611245Y-119281539D01*
X142609038Y-119351374D01*
X142569426Y-119408930D01*
X142507410Y-119435637D01*
X142395989Y-119450306D01*
X142168006Y-119511394D01*
X141949954Y-119601714D01*
X141949943Y-119601719D01*
X141745545Y-119719730D01*
X141555080Y-119865879D01*
X141554191Y-119864720D01*
X141496338Y-119891537D01*
X141427124Y-119881983D01*
X141401298Y-119865385D01*
X141400920Y-119865879D01*
X141210454Y-119719730D01*
X141210453Y-119719729D01*
X141210450Y-119719727D01*
X141090031Y-119650203D01*
X141006056Y-119601719D01*
X141006045Y-119601714D01*
X140787993Y-119511394D01*
X140676427Y-119481500D01*
X140560014Y-119450307D01*
X140560013Y-119450306D01*
X140560010Y-119450306D01*
X140326020Y-119419501D01*
X140326017Y-119419500D01*
X140326011Y-119419500D01*
X140089989Y-119419500D01*
X140089983Y-119419500D01*
X140089979Y-119419501D01*
X139855989Y-119450306D01*
X139628006Y-119511394D01*
X139409954Y-119601714D01*
X139409943Y-119601719D01*
X139205545Y-119719730D01*
X139018302Y-119863406D01*
X139018295Y-119863412D01*
X138851412Y-120030295D01*
X138851406Y-120030302D01*
X138707730Y-120217545D01*
X138589719Y-120421943D01*
X138589714Y-120421954D01*
X138499394Y-120640006D01*
X138438306Y-120867989D01*
X138407501Y-121101979D01*
X138407500Y-121101995D01*
X138407500Y-122738004D01*
X138407501Y-122738020D01*
X138438306Y-122972010D01*
X138499394Y-123199993D01*
X138589714Y-123418045D01*
X138589719Y-123418056D01*
X138617917Y-123466895D01*
X138707727Y-123622450D01*
X138707729Y-123622453D01*
X138707730Y-123622454D01*
X138851406Y-123809697D01*
X138851412Y-123809704D01*
X139018295Y-123976587D01*
X139018301Y-123976592D01*
X139205550Y-124120273D01*
X139336918Y-124196118D01*
X139409943Y-124238280D01*
X139409948Y-124238282D01*
X139409951Y-124238284D01*
X139628007Y-124328606D01*
X139855986Y-124389693D01*
X140089989Y-124420500D01*
X140089996Y-124420500D01*
X140326004Y-124420500D01*
X140326011Y-124420500D01*
X140560014Y-124389693D01*
X140787993Y-124328606D01*
X141006049Y-124238284D01*
X141210450Y-124120273D01*
X141397698Y-123976593D01*
X141400920Y-123974121D01*
X141401814Y-123975286D01*
X141459619Y-123948469D01*
X141528835Y-123957998D01*
X141554697Y-123974619D01*
X141555080Y-123974121D01*
X141558302Y-123976593D01*
X141745550Y-124120273D01*
X141876918Y-124196118D01*
X141949943Y-124238280D01*
X141949948Y-124238282D01*
X141949951Y-124238284D01*
X142168007Y-124328606D01*
X142395986Y-124389693D01*
X142629989Y-124420500D01*
X142629996Y-124420500D01*
X142866004Y-124420500D01*
X142866011Y-124420500D01*
X143100014Y-124389693D01*
X143327993Y-124328606D01*
X143546049Y-124238284D01*
X143750450Y-124120273D01*
X143937698Y-123976593D01*
X143940920Y-123974121D01*
X143941814Y-123975286D01*
X143999619Y-123948469D01*
X144068835Y-123957998D01*
X144094697Y-123974619D01*
X144095080Y-123974121D01*
X144098302Y-123976593D01*
X144285550Y-124120273D01*
X144416918Y-124196118D01*
X144489943Y-124238280D01*
X144489948Y-124238282D01*
X144489951Y-124238284D01*
X144708007Y-124328606D01*
X144935986Y-124389693D01*
X145169989Y-124420500D01*
X145169996Y-124420500D01*
X145406004Y-124420500D01*
X145406011Y-124420500D01*
X145640014Y-124389693D01*
X145867993Y-124328606D01*
X146086049Y-124238284D01*
X146290450Y-124120273D01*
X146477698Y-123976593D01*
X146480920Y-123974121D01*
X146481814Y-123975286D01*
X146539619Y-123948469D01*
X146608835Y-123957998D01*
X146634697Y-123974619D01*
X146635080Y-123974121D01*
X146638302Y-123976593D01*
X146825550Y-124120273D01*
X146956918Y-124196118D01*
X147029943Y-124238280D01*
X147029948Y-124238282D01*
X147029951Y-124238284D01*
X147248007Y-124328606D01*
X147475986Y-124389693D01*
X147709989Y-124420500D01*
X147709996Y-124420500D01*
X147946004Y-124420500D01*
X147946011Y-124420500D01*
X148180014Y-124389693D01*
X148407993Y-124328606D01*
X148626049Y-124238284D01*
X148830450Y-124120273D01*
X149017698Y-123976593D01*
X149020920Y-123974121D01*
X149021814Y-123975286D01*
X149079619Y-123948469D01*
X149148835Y-123957998D01*
X149174697Y-123974619D01*
X149175080Y-123974121D01*
X149178302Y-123976593D01*
X149365550Y-124120273D01*
X149496918Y-124196118D01*
X149569943Y-124238280D01*
X149569948Y-124238282D01*
X149569951Y-124238284D01*
X149788007Y-124328606D01*
X150015986Y-124389693D01*
X150249989Y-124420500D01*
X150249996Y-124420500D01*
X150486004Y-124420500D01*
X150486011Y-124420500D01*
X150720014Y-124389693D01*
X150947993Y-124328606D01*
X151166049Y-124238284D01*
X151370450Y-124120273D01*
X151557699Y-123976592D01*
X151724592Y-123809699D01*
X151868273Y-123622450D01*
X151868272Y-123622450D01*
X151870638Y-123619368D01*
X151927066Y-123578165D01*
X151996812Y-123574010D01*
X152056695Y-123607173D01*
X152061104Y-123611582D01*
X152226650Y-123731859D01*
X152408968Y-123824754D01*
X152603578Y-123887988D01*
X152658000Y-123896607D01*
X152658000Y-122200330D01*
X152677745Y-122220075D01*
X152763255Y-122269444D01*
X152858630Y-122295000D01*
X152957370Y-122295000D01*
X153052745Y-122269444D01*
X153138255Y-122220075D01*
X153158000Y-122200330D01*
X153158000Y-123896606D01*
X153212421Y-123887988D01*
X153407031Y-123824754D01*
X153589349Y-123731859D01*
X153754894Y-123611582D01*
X153754895Y-123611582D01*
X153899582Y-123466895D01*
X153899582Y-123466894D01*
X154019859Y-123301349D01*
X154067515Y-123207820D01*
X154115489Y-123157024D01*
X154183310Y-123140229D01*
X154249445Y-123162766D01*
X154288485Y-123207820D01*
X154336140Y-123301349D01*
X154456417Y-123466894D01*
X154456417Y-123466895D01*
X154601104Y-123611582D01*
X154766650Y-123731859D01*
X154948968Y-123824754D01*
X155143578Y-123887988D01*
X155198000Y-123896607D01*
X155198000Y-122200330D01*
X155217745Y-122220075D01*
X155303255Y-122269444D01*
X155398630Y-122295000D01*
X155497370Y-122295000D01*
X155592745Y-122269444D01*
X155678255Y-122220075D01*
X155698000Y-122200330D01*
X155698000Y-123896606D01*
X155752421Y-123887988D01*
X155947031Y-123824754D01*
X156129349Y-123731859D01*
X156294893Y-123611583D01*
X156299299Y-123607178D01*
X156360620Y-123573689D01*
X156430312Y-123578669D01*
X156485362Y-123619368D01*
X156631406Y-123809697D01*
X156631412Y-123809704D01*
X156798295Y-123976587D01*
X156798301Y-123976592D01*
X156985550Y-124120273D01*
X157116918Y-124196118D01*
X157189943Y-124238280D01*
X157189948Y-124238282D01*
X157189951Y-124238284D01*
X157408007Y-124328606D01*
X157635986Y-124389693D01*
X157869989Y-124420500D01*
X157869996Y-124420500D01*
X158106004Y-124420500D01*
X158106011Y-124420500D01*
X158340014Y-124389693D01*
X158567993Y-124328606D01*
X158786049Y-124238284D01*
X158990450Y-124120273D01*
X159177699Y-123976592D01*
X159344592Y-123809699D01*
X159488273Y-123622450D01*
X159606284Y-123418049D01*
X159696606Y-123199993D01*
X159757693Y-122972014D01*
X159788500Y-122738011D01*
X159788500Y-121101989D01*
X159757693Y-120867986D01*
X159696606Y-120640007D01*
X159606284Y-120421951D01*
X159606282Y-120421948D01*
X159606280Y-120421943D01*
X159513840Y-120261834D01*
X159488273Y-120217550D01*
X159344592Y-120030301D01*
X159344587Y-120030295D01*
X159177704Y-119863412D01*
X159177697Y-119863406D01*
X158990454Y-119719730D01*
X158990453Y-119719729D01*
X158990450Y-119719727D01*
X158870031Y-119650203D01*
X158786056Y-119601719D01*
X158786045Y-119601714D01*
X158567993Y-119511394D01*
X158456427Y-119481500D01*
X158340014Y-119450307D01*
X158340013Y-119450306D01*
X158340010Y-119450306D01*
X158106020Y-119419501D01*
X158106017Y-119419500D01*
X158106011Y-119419500D01*
X157869989Y-119419500D01*
X157869983Y-119419500D01*
X157869978Y-119419501D01*
X157652154Y-119448178D01*
X157583119Y-119437412D01*
X157530863Y-119391032D01*
X157511978Y-119323763D01*
X157532459Y-119256963D01*
X157555366Y-119231896D01*
X157555080Y-119231588D01*
X157558478Y-119228434D01*
X157558481Y-119228433D01*
X157728235Y-119070925D01*
X157750803Y-119049985D01*
X157750803Y-119049983D01*
X157750807Y-119049981D01*
X157914388Y-118844857D01*
X158045570Y-118617643D01*
X158141422Y-118373416D01*
X158199804Y-118117630D01*
X158200676Y-118106000D01*
X158219410Y-117856004D01*
X158219410Y-117855995D01*
X158199805Y-117594379D01*
X158199804Y-117594374D01*
X158199804Y-117594370D01*
X158141422Y-117338584D01*
X158045570Y-117094357D01*
X158045569Y-117094356D01*
X158045570Y-117094356D01*
X157992536Y-117002500D01*
X157976063Y-116934600D01*
X157998915Y-116868573D01*
X158053836Y-116825383D01*
X158099923Y-116816500D01*
X160617111Y-116816500D01*
X160684150Y-116836185D01*
X160704792Y-116852819D01*
X163059792Y-119207819D01*
X163093277Y-119269142D01*
X163088293Y-119338834D01*
X163046421Y-119394767D01*
X162980957Y-119419184D01*
X162972111Y-119419500D01*
X162949989Y-119419500D01*
X162949983Y-119419500D01*
X162949979Y-119419501D01*
X162715989Y-119450306D01*
X162488006Y-119511394D01*
X162269954Y-119601714D01*
X162269943Y-119601719D01*
X162065545Y-119719730D01*
X161878302Y-119863406D01*
X161878295Y-119863412D01*
X161711412Y-120030295D01*
X161711406Y-120030302D01*
X161567730Y-120217545D01*
X161449719Y-120421943D01*
X161449714Y-120421954D01*
X161359394Y-120640006D01*
X161298306Y-120867989D01*
X161267501Y-121101979D01*
X161267500Y-121101995D01*
X161267500Y-122738004D01*
X161267501Y-122738020D01*
X161298306Y-122972010D01*
X161359394Y-123199993D01*
X161449714Y-123418045D01*
X161449719Y-123418056D01*
X161477917Y-123466895D01*
X161567727Y-123622450D01*
X161567729Y-123622453D01*
X161567730Y-123622454D01*
X161711406Y-123809697D01*
X161711412Y-123809704D01*
X161878295Y-123976587D01*
X161878301Y-123976592D01*
X162065550Y-124120273D01*
X162196918Y-124196118D01*
X162269943Y-124238280D01*
X162269948Y-124238282D01*
X162269951Y-124238284D01*
X162488007Y-124328606D01*
X162715986Y-124389693D01*
X162949989Y-124420500D01*
X162949996Y-124420500D01*
X163186004Y-124420500D01*
X163186011Y-124420500D01*
X163420014Y-124389693D01*
X163647993Y-124328606D01*
X163866049Y-124238284D01*
X164070450Y-124120273D01*
X164257698Y-123976593D01*
X164260920Y-123974121D01*
X164261814Y-123975286D01*
X164319619Y-123948469D01*
X164388835Y-123957998D01*
X164414697Y-123974619D01*
X164415080Y-123974121D01*
X164418302Y-123976593D01*
X164605550Y-124120273D01*
X164736918Y-124196118D01*
X164809943Y-124238280D01*
X164809948Y-124238282D01*
X164809951Y-124238284D01*
X165028007Y-124328606D01*
X165255986Y-124389693D01*
X165489989Y-124420500D01*
X165489996Y-124420500D01*
X165726004Y-124420500D01*
X165726011Y-124420500D01*
X165960014Y-124389693D01*
X166187993Y-124328606D01*
X166406049Y-124238284D01*
X166610450Y-124120273D01*
X166797698Y-123976593D01*
X166800920Y-123974121D01*
X166801814Y-123975286D01*
X166859619Y-123948469D01*
X166928835Y-123957998D01*
X166954697Y-123974619D01*
X166955080Y-123974121D01*
X166958302Y-123976593D01*
X167145550Y-124120273D01*
X167276918Y-124196118D01*
X167349943Y-124238280D01*
X167349948Y-124238282D01*
X167349951Y-124238284D01*
X167568007Y-124328606D01*
X167795986Y-124389693D01*
X168029989Y-124420500D01*
X168029996Y-124420500D01*
X168266004Y-124420500D01*
X168266011Y-124420500D01*
X168500014Y-124389693D01*
X168727993Y-124328606D01*
X168946049Y-124238284D01*
X169150450Y-124120273D01*
X169337698Y-123976593D01*
X169340920Y-123974121D01*
X169341814Y-123975286D01*
X169399619Y-123948469D01*
X169468835Y-123957998D01*
X169494697Y-123974619D01*
X169495080Y-123974121D01*
X169498302Y-123976593D01*
X169685550Y-124120273D01*
X169816918Y-124196118D01*
X169889943Y-124238280D01*
X169889948Y-124238282D01*
X169889951Y-124238284D01*
X170108007Y-124328606D01*
X170335986Y-124389693D01*
X170569989Y-124420500D01*
X170569996Y-124420500D01*
X170806004Y-124420500D01*
X170806011Y-124420500D01*
X171040014Y-124389693D01*
X171267993Y-124328606D01*
X171486049Y-124238284D01*
X171690450Y-124120273D01*
X171877698Y-123976593D01*
X171880920Y-123974121D01*
X171881814Y-123975286D01*
X171939619Y-123948469D01*
X172008835Y-123957998D01*
X172034697Y-123974619D01*
X172035080Y-123974121D01*
X172038302Y-123976593D01*
X172225550Y-124120273D01*
X172356918Y-124196118D01*
X172429943Y-124238280D01*
X172429948Y-124238282D01*
X172429951Y-124238284D01*
X172648007Y-124328606D01*
X172875986Y-124389693D01*
X173109989Y-124420500D01*
X173109996Y-124420500D01*
X173346004Y-124420500D01*
X173346011Y-124420500D01*
X173580014Y-124389693D01*
X173807993Y-124328606D01*
X174026049Y-124238284D01*
X174230450Y-124120273D01*
X174417698Y-123976593D01*
X174420920Y-123974121D01*
X174421814Y-123975286D01*
X174479619Y-123948469D01*
X174548835Y-123957998D01*
X174574697Y-123974619D01*
X174575080Y-123974121D01*
X174578302Y-123976593D01*
X174765550Y-124120273D01*
X174896918Y-124196118D01*
X174969943Y-124238280D01*
X174969948Y-124238282D01*
X174969951Y-124238284D01*
X175188007Y-124328606D01*
X175415986Y-124389693D01*
X175649989Y-124420500D01*
X175649996Y-124420500D01*
X175886004Y-124420500D01*
X175886011Y-124420500D01*
X176120014Y-124389693D01*
X176347993Y-124328606D01*
X176566049Y-124238284D01*
X176770450Y-124120273D01*
X176957699Y-123976592D01*
X177124592Y-123809699D01*
X177268273Y-123622450D01*
X177386284Y-123418049D01*
X177476606Y-123199993D01*
X177537693Y-122972014D01*
X177568500Y-122738011D01*
X177568500Y-121101989D01*
X177537693Y-120867986D01*
X177476606Y-120640007D01*
X177386284Y-120421951D01*
X177386282Y-120421948D01*
X177386280Y-120421943D01*
X177293840Y-120261834D01*
X177268273Y-120217550D01*
X177124592Y-120030301D01*
X177124587Y-120030295D01*
X176957704Y-119863412D01*
X176957697Y-119863406D01*
X176770454Y-119719730D01*
X176770453Y-119719729D01*
X176770450Y-119719727D01*
X176650031Y-119650203D01*
X176566056Y-119601719D01*
X176566045Y-119601714D01*
X176347993Y-119511394D01*
X176236427Y-119481500D01*
X176120014Y-119450307D01*
X176120013Y-119450306D01*
X176120010Y-119450306D01*
X175886020Y-119419501D01*
X175886017Y-119419500D01*
X175886011Y-119419500D01*
X175649989Y-119419500D01*
X175649983Y-119419500D01*
X175649979Y-119419501D01*
X175415989Y-119450306D01*
X175188006Y-119511394D01*
X174969954Y-119601714D01*
X174969943Y-119601719D01*
X174914500Y-119633730D01*
X174846600Y-119650203D01*
X174780573Y-119627350D01*
X174737382Y-119572429D01*
X174728500Y-119526343D01*
X174728500Y-114689902D01*
X174691553Y-114456631D01*
X174618566Y-114232003D01*
X174548263Y-114094027D01*
X174511343Y-114021567D01*
X174393952Y-113859992D01*
X174372518Y-113830490D01*
X168934209Y-108392181D01*
X168900724Y-108330858D01*
X168905708Y-108261166D01*
X168947580Y-108205233D01*
X169013044Y-108180816D01*
X169021890Y-108180500D01*
X173772013Y-108180500D01*
X173839052Y-108200185D01*
X173884807Y-108252989D01*
X173894751Y-108322147D01*
X173865726Y-108385703D01*
X173844898Y-108404818D01*
X173744972Y-108477418D01*
X173744971Y-108477419D01*
X174389301Y-109121748D01*
X174287670Y-109195588D01*
X174109588Y-109373670D01*
X174035748Y-109475300D01*
X173394286Y-108833838D01*
X173394285Y-108833838D01*
X173303459Y-108943629D01*
X173303457Y-108943632D01*
X173134903Y-109209232D01*
X173134900Y-109209238D01*
X173000965Y-109493862D01*
X173000963Y-109493867D01*
X172903755Y-109793041D01*
X172844808Y-110102050D01*
X172844807Y-110102057D01*
X172825057Y-110415994D01*
X172825057Y-110416005D01*
X172844807Y-110729942D01*
X172844808Y-110729949D01*
X172903755Y-111038958D01*
X173000963Y-111338132D01*
X173000965Y-111338137D01*
X173134900Y-111622761D01*
X173134903Y-111622767D01*
X173303457Y-111888367D01*
X173303460Y-111888371D01*
X173394286Y-111998160D01*
X174035748Y-111356698D01*
X174109588Y-111458330D01*
X174287670Y-111636412D01*
X174389300Y-111710250D01*
X173744971Y-112354579D01*
X173744972Y-112354581D01*
X173987772Y-112530985D01*
X173987790Y-112530996D01*
X174263447Y-112682540D01*
X174263455Y-112682544D01*
X174555926Y-112798340D01*
X174860620Y-112876573D01*
X174860629Y-112876575D01*
X175172701Y-112915999D01*
X175172715Y-112916000D01*
X175487285Y-112916000D01*
X175487298Y-112915999D01*
X175799370Y-112876575D01*
X175799379Y-112876573D01*
X176104073Y-112798340D01*
X176396544Y-112682544D01*
X176396552Y-112682540D01*
X176672209Y-112530996D01*
X176672219Y-112530990D01*
X176915026Y-112354579D01*
X176915027Y-112354579D01*
X176270698Y-111710251D01*
X176372330Y-111636412D01*
X176550412Y-111458330D01*
X176624251Y-111356698D01*
X177265712Y-111998160D01*
X177356544Y-111888364D01*
X177525096Y-111622767D01*
X177525099Y-111622761D01*
X177659034Y-111338137D01*
X177659036Y-111338132D01*
X177756244Y-111038958D01*
X177815191Y-110729949D01*
X177815192Y-110729942D01*
X177834943Y-110416005D01*
X177834943Y-110415994D01*
X177815192Y-110102057D01*
X177815191Y-110102050D01*
X177756244Y-109793041D01*
X177659036Y-109493867D01*
X177659034Y-109493862D01*
X177525099Y-109209238D01*
X177525096Y-109209232D01*
X177356542Y-108943632D01*
X177356539Y-108943628D01*
X177265712Y-108833838D01*
X176624250Y-109475300D01*
X176550412Y-109373670D01*
X176372330Y-109195588D01*
X176270698Y-109121748D01*
X176915027Y-108477419D01*
X176915026Y-108477418D01*
X176815101Y-108404818D01*
X176772435Y-108349488D01*
X176766456Y-108279875D01*
X176799061Y-108218080D01*
X176859900Y-108183723D01*
X176887986Y-108180500D01*
X178426097Y-108180500D01*
X178659368Y-108143553D01*
X178883992Y-108070568D01*
X179094434Y-107963343D01*
X179285510Y-107824517D01*
X180976517Y-106133510D01*
X181115343Y-105942434D01*
X181121515Y-105930321D01*
X181169488Y-105879525D01*
X181237309Y-105862729D01*
X181303444Y-105885266D01*
X181346896Y-105939980D01*
X181356000Y-105986615D01*
X181356000Y-124844000D01*
X181336315Y-124911039D01*
X181283511Y-124956794D01*
X181232000Y-124968000D01*
X111884000Y-124968000D01*
X111816961Y-124948315D01*
X111771206Y-124895511D01*
X111760000Y-124844000D01*
X111760000Y-113033999D01*
X136389127Y-113033999D01*
X136389128Y-113034000D01*
X137352314Y-113034000D01*
X137347920Y-113038394D01*
X137295259Y-113129606D01*
X137268000Y-113231339D01*
X137268000Y-113336661D01*
X137295259Y-113438394D01*
X137347920Y-113529606D01*
X137352314Y-113534000D01*
X136389128Y-113534000D01*
X136441730Y-113730317D01*
X136441734Y-113730326D01*
X136537865Y-113936482D01*
X136668342Y-114122820D01*
X136829179Y-114283657D01*
X137015517Y-114414134D01*
X137221673Y-114510265D01*
X137221682Y-114510269D01*
X137417999Y-114562872D01*
X137418000Y-114562871D01*
X137418000Y-113599686D01*
X137422394Y-113604080D01*
X137513606Y-113656741D01*
X137615339Y-113684000D01*
X137720661Y-113684000D01*
X137822394Y-113656741D01*
X137913606Y-113604080D01*
X137918000Y-113599686D01*
X137918000Y-114562872D01*
X138114317Y-114510269D01*
X138114326Y-114510265D01*
X138320482Y-114414134D01*
X138506820Y-114283657D01*
X138667657Y-114122820D01*
X138798134Y-113936482D01*
X138894265Y-113730326D01*
X138894269Y-113730317D01*
X138946872Y-113534000D01*
X137983686Y-113534000D01*
X137988080Y-113529606D01*
X138040741Y-113438394D01*
X138068000Y-113336661D01*
X138068000Y-113231339D01*
X138040741Y-113129606D01*
X137988080Y-113038394D01*
X137983686Y-113034000D01*
X138946872Y-113034000D01*
X138946872Y-113033999D01*
X138894269Y-112837682D01*
X138894265Y-112837673D01*
X138798134Y-112631517D01*
X138667657Y-112445179D01*
X138506820Y-112284342D01*
X138320482Y-112153865D01*
X138114328Y-112057734D01*
X137918000Y-112005127D01*
X137918000Y-112968314D01*
X137913606Y-112963920D01*
X137822394Y-112911259D01*
X137720661Y-112884000D01*
X137615339Y-112884000D01*
X137513606Y-112911259D01*
X137422394Y-112963920D01*
X137418000Y-112968314D01*
X137418000Y-112005127D01*
X137221671Y-112057734D01*
X137015517Y-112153865D01*
X136829179Y-112284342D01*
X136668342Y-112445179D01*
X136537865Y-112631517D01*
X136441734Y-112837673D01*
X136441730Y-112837682D01*
X136389127Y-113033999D01*
X111760000Y-113033999D01*
X111760000Y-103381999D01*
X136389127Y-103381999D01*
X136389128Y-103382000D01*
X137352314Y-103382000D01*
X137347920Y-103386394D01*
X137295259Y-103477606D01*
X137268000Y-103579339D01*
X137268000Y-103684661D01*
X137295259Y-103786394D01*
X137347920Y-103877606D01*
X137352314Y-103882000D01*
X136389128Y-103882000D01*
X136441730Y-104078317D01*
X136441734Y-104078326D01*
X136537865Y-104284482D01*
X136668342Y-104470820D01*
X136829179Y-104631657D01*
X137015517Y-104762134D01*
X137221673Y-104858265D01*
X137221682Y-104858269D01*
X137417999Y-104910872D01*
X137418000Y-104910871D01*
X137418000Y-103947686D01*
X137422394Y-103952080D01*
X137513606Y-104004741D01*
X137615339Y-104032000D01*
X137720661Y-104032000D01*
X137822394Y-104004741D01*
X137913606Y-103952080D01*
X137918000Y-103947686D01*
X137918000Y-104910872D01*
X138114317Y-104858269D01*
X138114326Y-104858265D01*
X138320482Y-104762134D01*
X138506820Y-104631657D01*
X138667657Y-104470820D01*
X138798134Y-104284482D01*
X138894265Y-104078326D01*
X138894269Y-104078317D01*
X138946872Y-103882000D01*
X137983686Y-103882000D01*
X137988080Y-103877606D01*
X138040741Y-103786394D01*
X138068000Y-103684661D01*
X138068000Y-103579339D01*
X138040741Y-103477606D01*
X137988080Y-103386394D01*
X137983686Y-103382000D01*
X138946872Y-103382000D01*
X138946872Y-103381999D01*
X138894269Y-103185682D01*
X138894265Y-103185673D01*
X138798134Y-102979517D01*
X138667657Y-102793179D01*
X138506820Y-102632342D01*
X138320482Y-102501865D01*
X138114328Y-102405734D01*
X137918000Y-102353127D01*
X137918000Y-103316314D01*
X137913606Y-103311920D01*
X137822394Y-103259259D01*
X137720661Y-103232000D01*
X137615339Y-103232000D01*
X137513606Y-103259259D01*
X137422394Y-103311920D01*
X137418000Y-103316314D01*
X137418000Y-102353127D01*
X137221671Y-102405734D01*
X137015517Y-102501865D01*
X136829179Y-102632342D01*
X136668342Y-102793179D01*
X136537865Y-102979517D01*
X136441734Y-103185673D01*
X136441730Y-103185682D01*
X136389127Y-103381999D01*
X111760000Y-103381999D01*
X111760000Y-70736000D01*
X111779685Y-70668961D01*
X111832489Y-70623206D01*
X111884000Y-70612000D01*
X181232000Y-70612000D01*
X181299039Y-70631685D01*
G37*
%TD.AperFunction*%
%TA.AperFunction,Conductor*%
G36*
X155147925Y-121689745D02*
G01*
X155098556Y-121775255D01*
X155073000Y-121870630D01*
X155073000Y-121969370D01*
X155098556Y-122064745D01*
X155147925Y-122150255D01*
X155167670Y-122170000D01*
X153188330Y-122170000D01*
X153208075Y-122150255D01*
X153257444Y-122064745D01*
X153283000Y-121969370D01*
X153283000Y-121870630D01*
X153257444Y-121775255D01*
X153208075Y-121689745D01*
X153188330Y-121670000D01*
X155167670Y-121670000D01*
X155147925Y-121689745D01*
G37*
%TD.AperFunction*%
%TA.AperFunction,Conductor*%
G36*
X155818090Y-119489197D02*
G01*
X155818246Y-119488695D01*
X155822675Y-119490061D01*
X155822679Y-119490063D01*
X156073387Y-119567396D01*
X156332820Y-119606500D01*
X156595184Y-119606500D01*
X156789265Y-119577246D01*
X156858488Y-119586719D01*
X156911603Y-119632113D01*
X156931743Y-119699017D01*
X156912515Y-119766189D01*
X156883233Y-119798236D01*
X156798304Y-119863404D01*
X156798295Y-119863412D01*
X156631412Y-120030295D01*
X156485361Y-120220632D01*
X156428933Y-120261834D01*
X156359186Y-120265989D01*
X156299304Y-120232826D01*
X156294895Y-120228417D01*
X156129349Y-120108140D01*
X155947029Y-120015244D01*
X155752413Y-119952009D01*
X155698000Y-119943390D01*
X155698000Y-121639670D01*
X155678255Y-121619925D01*
X155592745Y-121570556D01*
X155497370Y-121545000D01*
X155398630Y-121545000D01*
X155303255Y-121570556D01*
X155217745Y-121619925D01*
X155198000Y-121639670D01*
X155198000Y-119943390D01*
X155143586Y-119952009D01*
X154948970Y-120015244D01*
X154766650Y-120108140D01*
X154601105Y-120228417D01*
X154601104Y-120228417D01*
X154456417Y-120373104D01*
X154456417Y-120373105D01*
X154336140Y-120538650D01*
X154288485Y-120632179D01*
X154240510Y-120682975D01*
X154172689Y-120699770D01*
X154106554Y-120677232D01*
X154067515Y-120632179D01*
X154019859Y-120538650D01*
X153899582Y-120373105D01*
X153899582Y-120373104D01*
X153754895Y-120228417D01*
X153589349Y-120108140D01*
X153407029Y-120015244D01*
X153212413Y-119952009D01*
X153158000Y-119943390D01*
X153158000Y-121639670D01*
X153138255Y-121619925D01*
X153052745Y-121570556D01*
X152957370Y-121545000D01*
X152858630Y-121545000D01*
X152763255Y-121570556D01*
X152677745Y-121619925D01*
X152658000Y-121639670D01*
X152658000Y-119943390D01*
X152603586Y-119952009D01*
X152408970Y-120015244D01*
X152226647Y-120108142D01*
X152190385Y-120134488D01*
X152124579Y-120157968D01*
X152056525Y-120142142D01*
X152007830Y-120092037D01*
X151993500Y-120034170D01*
X151993500Y-119605500D01*
X152013185Y-119538461D01*
X152065989Y-119492706D01*
X152117500Y-119481500D01*
X153288070Y-119481500D01*
X155777399Y-119481500D01*
X155818090Y-119489197D01*
G37*
%TD.AperFunction*%
%TD*%
M02*
