%TF.GenerationSoftware,KiCad,Pcbnew,8.0.2-8.0.2-0~ubuntu24.04.1*%
%TF.CreationDate,2024-05-16T14:50:05-03:00*%
%TF.ProjectId,arduvga,61726475-7667-4612-9e6b-696361645f70,1*%
%TF.SameCoordinates,Original*%
%TF.FileFunction,Soldermask,Bot*%
%TF.FilePolarity,Negative*%
%FSLAX46Y46*%
G04 Gerber Fmt 4.6, Leading zero omitted, Abs format (unit mm)*
G04 Created by KiCad (PCBNEW 8.0.2-8.0.2-0~ubuntu24.04.1) date 2024-05-16 14:50:05*
%MOMM*%
%LPD*%
G01*
G04 APERTURE LIST*
%ADD10C,4.000000*%
%ADD11R,1.600000X1.600000*%
%ADD12C,1.600000*%
%ADD13O,1.600000X1.600000*%
%ADD14R,1.700000X1.700000*%
%ADD15O,1.700000X1.700000*%
%ADD16O,1.600000X3.000000*%
G04 APERTURE END LIST*
D10*
%TO.C,J5*%
X175330000Y-110416000D03*
X175330000Y-85416000D03*
D11*
X173280000Y-93601000D03*
D12*
X173280000Y-95891000D03*
X173280000Y-98181000D03*
X173280000Y-100471000D03*
X173280000Y-102761000D03*
X175260000Y-92456000D03*
X175260000Y-94746000D03*
X175260000Y-97036000D03*
X175260000Y-99326000D03*
X175260000Y-101616000D03*
X177240000Y-93601000D03*
X177240000Y-95891000D03*
X177240000Y-98181000D03*
X177240000Y-100471000D03*
X177240000Y-102761000D03*
%TD*%
%TO.C,R5*%
X145288000Y-113284000D03*
D13*
X137668000Y-113284000D03*
%TD*%
D12*
%TO.C,R6*%
X145288000Y-103632000D03*
D13*
X137668000Y-103632000D03*
%TD*%
D14*
%TO.C,J1*%
X150368000Y-117856000D03*
D15*
X147828000Y-117856000D03*
X145288000Y-117856000D03*
X142748000Y-117856000D03*
%TD*%
D12*
%TO.C,R7*%
X161544000Y-98044000D03*
D13*
X161544000Y-90424000D03*
%TD*%
D14*
%TO.C,J3*%
X150368000Y-108712000D03*
D15*
X147828000Y-108712000D03*
X145288000Y-108712000D03*
X142748000Y-108712000D03*
%TD*%
D12*
%TO.C,R2*%
X157988000Y-93472000D03*
D13*
X157988000Y-85852000D03*
%TD*%
D12*
%TO.C,R3*%
X154432000Y-95504000D03*
D13*
X154432000Y-87884000D03*
%TD*%
D12*
%TO.C,R4*%
X150876000Y-101600000D03*
D13*
X150876000Y-93980000D03*
%TD*%
D12*
%TO.C,R1*%
X176022000Y-78740000D03*
D13*
X168402000Y-78740000D03*
%TD*%
D16*
%TO.C,A1*%
X140208000Y-121920000D03*
X142748000Y-121920000D03*
X145288000Y-121920000D03*
X147828000Y-121920000D03*
X150368000Y-121920000D03*
X152908000Y-121920000D03*
X155448000Y-121920000D03*
X157988000Y-121920000D03*
X163068000Y-121920000D03*
X165608000Y-121920000D03*
X168148000Y-121920000D03*
X170688000Y-121920000D03*
X173228000Y-121920000D03*
X175768000Y-121920000D03*
X175768000Y-73660000D03*
X173228000Y-73660000D03*
X170688000Y-73660000D03*
X168148000Y-73660000D03*
X165608000Y-73660000D03*
X163068000Y-73660000D03*
X160528000Y-73660000D03*
X157988000Y-73660000D03*
X153928000Y-73660000D03*
X151388000Y-73660000D03*
X148848000Y-73660000D03*
X146308000Y-73660000D03*
X143768000Y-73660000D03*
X141228000Y-73660000D03*
X138688000Y-73660000D03*
X136148000Y-73660000D03*
X133608000Y-73660000D03*
X131068000Y-73660000D03*
%TD*%
M02*
